<?xml version="1.0" encoding="UTF-8" standalone="no"?>
<!DOCTYPE svg PUBLIC "-//W3C//DTD SVG 1.1//EN"
 "http://www.w3.org/Graphics/SVG/1.1/DTD/svg11.dtd">
<!-- Generated by graphviz version 2.40.1 (20161225.0304)
 -->
<!-- Title: dependencies Pages: 1 -->
<svg width="504pt" height="284pt"
 viewBox="0.00 0.00 504.00 284.00" xmlns="http://www.w3.org/2000/svg" xmlns:xlink="http://www.w3.org/1999/xlink">
<g id="graph0" class="graph" transform="scale(1 1) rotate(0) translate(4 280)">
<title>dependencies</title>
<polygon fill="#ffffff" stroke="transparent" points="-4,4 -4,-280 500,-280 500,4 -4,4"/>
<text text-anchor="start" x="227.0091" y="-42.4" font-family="sans-serif" font-weight="bold" font-size="14.00" fill="#000000">Legend</text>
<polygon fill="#ffffb3" stroke="transparent" points="14,-10 14,-30 34,-30 34,-10 14,-10"/>
<text text-anchor="start" x="37.629" y="-15.4" font-family="sans-serif" font-size="14.00" fill="#000000"> &#160;Declarations</text>
<polygon fill="#8dd3c7" stroke="transparent" points="127,-10 127,-30 147,-30 147,-10 127,-10"/>
<text text-anchor="start" x="150.7251" y="-15.4" font-family="sans-serif" font-size="14.00" fill="#000000"> &#160;Module</text>
<polygon fill="#80b1d3" stroke="transparent" points="213,-10 213,-30 233,-30 233,-10 213,-10"/>
<text text-anchor="start" x="236.7812" y="-15.4" font-family="sans-serif" font-size="14.00" fill="#000000"> &#160;Bootstrap</text>
<polygon fill="#fdb462" stroke="transparent" points="310,-10 310,-30 330,-30 330,-10 310,-10"/>
<text text-anchor="start" x="333.6732" y="-15.4" font-family="sans-serif" font-size="14.00" fill="#000000"> &#160;Providers</text>
<polygon fill="#fb8072" stroke="transparent" points="406,-10 406,-30 426,-30 426,-10 406,-10"/>
<text text-anchor="start" x="429.7258" y="-15.4" font-family="sans-serif" font-size="14.00" fill="#000000"> &#160;Exports</text>
<g id="clust1" class="cluster">
<title>cluster_CoreModule</title>
<polygon fill="none" stroke="#000000" stroke-dasharray="1,5" points="79,-70 79,-268 417,-268 417,-70 79,-70"/>
</g>
<g id="clust2" class="cluster">
<title>cluster_CoreModule_declarations</title>
<polygon fill="none" stroke="#000000" points="91,-78 91,-130 405,-130 405,-78 91,-78"/>
</g>
<g id="clust6" class="cluster">
<title>cluster_CoreModule_exports</title>
<polygon fill="none" stroke="#000000" points="87,-208 87,-260 409,-260 409,-208 87,-208"/>
</g>
<!-- HeaderComponent -->
<g id="node1" class="node">
<title>HeaderComponent</title>
<polygon fill="#ffffb3" stroke="#000000" points="396.7437,-122 275.2563,-122 275.2563,-86 396.7437,-86 396.7437,-122"/>
<text text-anchor="middle" x="336" y="-99.8" font-family="Times,serif" font-size="14.00" fill="#000000">HeaderComponent</text>
</g>
<!-- CoreModule -->
<g id="node3" class="node">
<title>CoreModule</title>
<polygon fill="#8dd3c7" stroke="#000000" points="222.2619,-187 219.2619,-191 198.2619,-191 195.2619,-187 135.7381,-187 135.7381,-151 222.2619,-151 222.2619,-187"/>
<text text-anchor="middle" x="179" y="-164.8" font-family="Times,serif" font-size="14.00" fill="#000000">CoreModule</text>
</g>
<!-- HeaderComponent&#45;&gt;CoreModule -->
<g id="edge1" class="edge">
<title>HeaderComponent&#45;&gt;CoreModule</title>
<path fill="none" stroke="#000000" d="M356.3739,-122.0225C356.3739,-139.3734 356.3739,-163 356.3739,-163 356.3739,-163 232.3905,-163 232.3905,-163"/>
<polygon fill="#000000" stroke="#000000" points="232.3906,-159.5001 222.3905,-163 232.3905,-166.5001 232.3906,-159.5001"/>
</g>
<!-- PageNotFundComponent -->
<g id="node2" class="node">
<title>PageNotFundComponent</title>
<polygon fill="#ffffb3" stroke="#000000" points="257.3243,-122 98.6757,-122 98.6757,-86 257.3243,-86 257.3243,-122"/>
<text text-anchor="middle" x="178" y="-99.8" font-family="Times,serif" font-size="14.00" fill="#000000">PageNotFundComponent</text>
</g>
<!-- PageNotFundComponent&#45;&gt;CoreModule -->
<g id="edge2" class="edge">
<title>PageNotFundComponent&#45;&gt;CoreModule</title>
<path fill="none" stroke="#000000" d="M179,-122.1061C179,-122.1061 179,-140.991 179,-140.991"/>
<polygon fill="#000000" stroke="#000000" points="175.5001,-140.9909 179,-150.991 182.5001,-140.991 175.5001,-140.9909"/>
</g>
<!-- HeaderComponent  -->
<g id="node4" class="node">
<title>HeaderComponent </title>
<polygon fill="#fb8072" stroke="#000000" points="400.7436,-252 275.2564,-252 275.2564,-216 400.7436,-216 400.7436,-252"/>
<text text-anchor="middle" x="338" y="-229.8" font-family="Times,serif" font-size="14.00" fill="#000000">HeaderComponent </text>
</g>
<!-- CoreModule&#45;&gt;HeaderComponent  -->
<g id="edge3" class="edge">
<title>CoreModule&#45;&gt;HeaderComponent </title>
<path fill="none" stroke="#000000" stroke-dasharray="5,2" d="M222.3085,-175C262.4089,-175 315.8761,-175 315.8761,-175 315.8761,-175 315.8761,-205.9775 315.8761,-205.9775"/>
<polygon fill="#000000" stroke="#000000" points="312.3762,-205.9774 315.8761,-215.9775 319.3762,-205.9775 312.3762,-205.9774"/>
</g>
<!-- PageNotFundComponent  -->
<g id="node5" class="node">
<title>PageNotFundComponent </title>
<polygon fill="#fb8072" stroke="#000000" points="256.8241,-252 95.1759,-252 95.1759,-216 256.8241,-216 256.8241,-252"/>
<text text-anchor="middle" x="176" y="-229.8" font-family="Times,serif" font-size="14.00" fill="#000000">PageNotFundComponent </text>
</g>
<!-- CoreModule&#45;&gt;PageNotFundComponent  -->
<g id="edge4" class="edge">
<title>CoreModule&#45;&gt;PageNotFundComponent </title>
<path fill="none" stroke="#000000" stroke-dasharray="5,2" d="M179,-187.1061C179,-187.1061 179,-205.991 179,-205.991"/>
<polygon fill="#000000" stroke="#000000" points="175.5001,-205.9909 179,-215.991 182.5001,-205.991 175.5001,-205.9909"/>
</g>
</g>
</svg>
