<?xml version="1.0" encoding="UTF-8" standalone="no"?>
<!DOCTYPE svg PUBLIC "-//W3C//DTD SVG 1.1//EN"
 "http://www.w3.org/Graphics/SVG/1.1/DTD/svg11.dtd">
<!-- Generated by graphviz version 2.40.1 (20161225.0304)
 -->
<!-- Title: dependencies Pages: 1 -->
<svg width="744pt" height="284pt"
 viewBox="0.00 0.00 744.00 284.00" xmlns="http://www.w3.org/2000/svg" xmlns:xlink="http://www.w3.org/1999/xlink">
<g id="graph0" class="graph" transform="scale(1 1) rotate(0) translate(4 280)">
<title>dependencies</title>
<polygon fill="#ffffff" stroke="transparent" points="-4,4 -4,-280 740,-280 740,4 -4,4"/>
<text text-anchor="start" x="347.0091" y="-42.4" font-family="sans-serif" font-weight="bold" font-size="14.00" fill="#000000">Legend</text>
<polygon fill="#ffffb3" stroke="transparent" points="134,-10 134,-30 154,-30 154,-10 134,-10"/>
<text text-anchor="start" x="157.629" y="-15.4" font-family="sans-serif" font-size="14.00" fill="#000000"> &#160;Declarations</text>
<polygon fill="#8dd3c7" stroke="transparent" points="247,-10 247,-30 267,-30 267,-10 247,-10"/>
<text text-anchor="start" x="270.7251" y="-15.4" font-family="sans-serif" font-size="14.00" fill="#000000"> &#160;Module</text>
<polygon fill="#80b1d3" stroke="transparent" points="333,-10 333,-30 353,-30 353,-10 333,-10"/>
<text text-anchor="start" x="356.7812" y="-15.4" font-family="sans-serif" font-size="14.00" fill="#000000"> &#160;Bootstrap</text>
<polygon fill="#fdb462" stroke="transparent" points="430,-10 430,-30 450,-30 450,-10 430,-10"/>
<text text-anchor="start" x="453.6732" y="-15.4" font-family="sans-serif" font-size="14.00" fill="#000000"> &#160;Providers</text>
<polygon fill="#fb8072" stroke="transparent" points="526,-10 526,-30 546,-30 546,-10 526,-10"/>
<text text-anchor="start" x="549.7258" y="-15.4" font-family="sans-serif" font-size="14.00" fill="#000000"> &#160;Exports</text>
<g id="clust1" class="cluster">
<title>cluster_SharedModule</title>
<polygon fill="none" stroke="#000000" stroke-dasharray="1,5" points="8,-70 8,-268 728,-268 728,-70 8,-70"/>
</g>
<g id="clust2" class="cluster">
<title>cluster_SharedModule_declarations</title>
<polygon fill="none" stroke="#000000" points="24,-78 24,-130 714,-130 714,-78 24,-78"/>
</g>
<g id="clust8" class="cluster">
<title>cluster_SharedModule_exports</title>
<polygon fill="none" stroke="#000000" points="16,-208 16,-260 720,-260 720,-208 16,-208"/>
</g>
<!-- ChangeColorIntervalDirective -->
<g id="node1" class="node">
<title>ChangeColorIntervalDirective</title>
<polygon fill="#ffffb3" stroke="#000000" points="706.2682,-122 519.7318,-122 519.7318,-86 706.2682,-86 706.2682,-122"/>
<text text-anchor="middle" x="613" y="-99.8" font-family="Times,serif" font-size="14.00" fill="#000000">ChangeColorIntervalDirective</text>
</g>
<!-- SharedModule -->
<g id="node5" class="node">
<title>SharedModule</title>
<polygon fill="#8dd3c7" stroke="#000000" points="269.4231,-187 266.4231,-191 245.4231,-191 242.4231,-187 170.5769,-187 170.5769,-151 269.4231,-151 269.4231,-187"/>
<text text-anchor="middle" x="220" y="-164.8" font-family="Times,serif" font-size="14.00" fill="#000000">SharedModule</text>
</g>
<!-- ChangeColorIntervalDirective&#45;&gt;SharedModule -->
<g id="edge1" class="edge">
<title>ChangeColorIntervalDirective&#45;&gt;SharedModule</title>
<path fill="none" stroke="#000000" d="M644.7947,-122.2667C644.7947,-140.5552 644.7947,-166 644.7947,-166 644.7947,-166 279.5607,-166 279.5607,-166"/>
<polygon fill="#000000" stroke="#000000" points="279.5608,-162.5001 269.5607,-166 279.5607,-169.5001 279.5608,-162.5001"/>
</g>
<!-- ChangeFontfamilyIntervalDirective -->
<g id="node2" class="node">
<title>ChangeFontfamilyIntervalDirective</title>
<polygon fill="#ffffb3" stroke="#000000" points="502.1008,-122 285.8992,-122 285.8992,-86 502.1008,-86 502.1008,-122"/>
<text text-anchor="middle" x="394" y="-99.8" font-family="Times,serif" font-size="14.00" fill="#000000">ChangeFontfamilyIntervalDirective</text>
</g>
<!-- ChangeFontfamilyIntervalDirective&#45;&gt;SharedModule -->
<g id="edge2" class="edge">
<title>ChangeFontfamilyIntervalDirective&#45;&gt;SharedModule</title>
<path fill="none" stroke="#000000" d="M430.1001,-122.0091C430.1001,-138.0494 430.1001,-159 430.1001,-159 430.1001,-159 279.2591,-159 279.2591,-159"/>
<polygon fill="#000000" stroke="#000000" points="279.2592,-155.5001 269.2591,-159 279.2591,-162.5001 279.2592,-155.5001"/>
</g>
<!-- LimitCharPipe -->
<g id="node3" class="node">
<title>LimitCharPipe</title>
<polygon fill="#ffffb3" stroke="#000000" points="267.7148,-122 168.2852,-122 168.2852,-86 267.7148,-86 267.7148,-122"/>
<text text-anchor="middle" x="218" y="-99.8" font-family="Times,serif" font-size="14.00" fill="#000000">LimitCharPipe</text>
</g>
<!-- LimitCharPipe&#45;&gt;SharedModule -->
<g id="edge3" class="edge">
<title>LimitCharPipe&#45;&gt;SharedModule</title>
<path fill="none" stroke="#000000" d="M219.1981,-122.1061C219.1981,-122.1061 219.1981,-140.991 219.1981,-140.991"/>
<polygon fill="#000000" stroke="#000000" points="215.6982,-140.9909 219.1981,-150.991 222.6982,-140.991 215.6982,-140.9909"/>
</g>
<!-- ModalComponent -->
<g id="node4" class="node">
<title>ModalComponent</title>
<polygon fill="#ffffb3" stroke="#000000" points="149.8823,-122 32.1177,-122 32.1177,-86 149.8823,-86 149.8823,-122"/>
<text text-anchor="middle" x="91" y="-99.8" font-family="Times,serif" font-size="14.00" fill="#000000">ModalComponent</text>
</g>
<!-- ModalComponent&#45;&gt;SharedModule -->
<g id="edge4" class="edge">
<title>ModalComponent&#45;&gt;SharedModule</title>
<path fill="none" stroke="#000000" d="M107.8137,-122.0225C107.8137,-139.3734 107.8137,-163 107.8137,-163 107.8137,-163 160.4669,-163 160.4669,-163"/>
<polygon fill="#000000" stroke="#000000" points="160.4669,-166.5001 170.4669,-163 160.4669,-159.5001 160.4669,-166.5001"/>
</g>
<!-- ChangeColorIntervalDirective  -->
<g id="node6" class="node">
<title>ChangeColorIntervalDirective </title>
<polygon fill="#fb8072" stroke="#000000" points="711.7681,-252 522.2319,-252 522.2319,-216 711.7681,-216 711.7681,-252"/>
<text text-anchor="middle" x="617" y="-229.8" font-family="Times,serif" font-size="14.00" fill="#000000">ChangeColorIntervalDirective </text>
</g>
<!-- SharedModule&#45;&gt;ChangeColorIntervalDirective  -->
<g id="edge5" class="edge">
<title>SharedModule&#45;&gt;ChangeColorIntervalDirective </title>
<path fill="none" stroke="#000000" stroke-dasharray="5,2" d="M269.3955,-173C368.7709,-173 583.4553,-173 583.4553,-173 583.4553,-173 583.4553,-205.698 583.4553,-205.698"/>
<polygon fill="#000000" stroke="#000000" points="579.9554,-205.698 583.4553,-215.698 586.9554,-205.698 579.9554,-205.698"/>
</g>
<!-- ChangeFontfamilyIntervalDirective  -->
<g id="node7" class="node">
<title>ChangeFontfamilyIntervalDirective </title>
<polygon fill="#fb8072" stroke="#000000" points="504.1004,-252 283.8996,-252 283.8996,-216 504.1004,-216 504.1004,-252"/>
<text text-anchor="middle" x="394" y="-229.8" font-family="Times,serif" font-size="14.00" fill="#000000">ChangeFontfamilyIntervalDirective </text>
</g>
<!-- SharedModule&#45;&gt;ChangeFontfamilyIntervalDirective  -->
<g id="edge6" class="edge">
<title>SharedModule&#45;&gt;ChangeFontfamilyIntervalDirective </title>
<path fill="none" stroke="#000000" stroke-dasharray="5,2" d="M269.3955,-180C308.9645,-180 357.8999,-180 357.8999,-180 357.8999,-180 357.8999,-205.7181 357.8999,-205.7181"/>
<polygon fill="#000000" stroke="#000000" points="354.4,-205.718 357.8999,-215.7181 361.4,-205.7181 354.4,-205.718"/>
</g>
<!-- LimitCharPipe  -->
<g id="node8" class="node">
<title>LimitCharPipe </title>
<polygon fill="#fb8072" stroke="#000000" points="266.215,-252 163.785,-252 163.785,-216 266.215,-216 266.215,-252"/>
<text text-anchor="middle" x="215" y="-229.8" font-family="Times,serif" font-size="14.00" fill="#000000">LimitCharPipe </text>
</g>
<!-- SharedModule&#45;&gt;LimitCharPipe  -->
<g id="edge7" class="edge">
<title>SharedModule&#45;&gt;LimitCharPipe </title>
<path fill="none" stroke="#000000" stroke-dasharray="5,2" d="M218.5731,-187.1061C218.5731,-187.1061 218.5731,-205.991 218.5731,-205.991"/>
<polygon fill="#000000" stroke="#000000" points="215.0732,-205.9909 218.5731,-215.991 222.0732,-205.991 215.0732,-205.9909"/>
</g>
<!-- ModalComponent  -->
<g id="node9" class="node">
<title>ModalComponent </title>
<polygon fill="#fb8072" stroke="#000000" points="145.8828,-252 24.1172,-252 24.1172,-216 145.8828,-216 145.8828,-252"/>
<text text-anchor="middle" x="85" y="-229.8" font-family="Times,serif" font-size="14.00" fill="#000000">ModalComponent </text>
</g>
<!-- SharedModule&#45;&gt;ModalComponent  -->
<g id="edge8" class="edge">
<title>SharedModule&#45;&gt;ModalComponent </title>
<path fill="none" stroke="#000000" stroke-dasharray="5,2" d="M170.4476,-175C126.7374,-175 69.9363,-175 69.9363,-175 69.9363,-175 69.9363,-205.9775 69.9363,-205.9775"/>
<polygon fill="#000000" stroke="#000000" points="66.4364,-205.9774 69.9363,-215.9775 73.4364,-205.9775 66.4364,-205.9774"/>
</g>
</g>
</svg>
