<?xml version="1.0" encoding="UTF-8" standalone="no"?>
<!DOCTYPE svg PUBLIC "-//W3C//DTD SVG 1.1//EN"
 "http://www.w3.org/Graphics/SVG/1.1/DTD/svg11.dtd">
<!-- Generated by graphviz version 2.40.1 (20161225.0304)
 -->
<!-- Title: dependencies Pages: 1 -->
<svg width="506pt" height="284pt"
 viewBox="0.00 0.00 506.00 284.00" xmlns="http://www.w3.org/2000/svg" xmlns:xlink="http://www.w3.org/1999/xlink">
<g id="graph0" class="graph" transform="scale(1 1) rotate(0) translate(4 280)">
<title>dependencies</title>
<polygon fill="#ffffff" stroke="transparent" points="-4,4 -4,-280 502,-280 502,4 -4,4"/>
<text text-anchor="start" x="228.0091" y="-42.4" font-family="sans-serif" font-weight="bold" font-size="14.00" fill="#000000">Legend</text>
<polygon fill="#ffffb3" stroke="transparent" points="15,-10 15,-30 35,-30 35,-10 15,-10"/>
<text text-anchor="start" x="38.629" y="-15.4" font-family="sans-serif" font-size="14.00" fill="#000000"> &#160;Declarations</text>
<polygon fill="#8dd3c7" stroke="transparent" points="128,-10 128,-30 148,-30 148,-10 128,-10"/>
<text text-anchor="start" x="151.7251" y="-15.4" font-family="sans-serif" font-size="14.00" fill="#000000"> &#160;Module</text>
<polygon fill="#80b1d3" stroke="transparent" points="214,-10 214,-30 234,-30 234,-10 214,-10"/>
<text text-anchor="start" x="237.7812" y="-15.4" font-family="sans-serif" font-size="14.00" fill="#000000"> &#160;Bootstrap</text>
<polygon fill="#fdb462" stroke="transparent" points="311,-10 311,-30 331,-30 331,-10 311,-10"/>
<text text-anchor="start" x="334.6732" y="-15.4" font-family="sans-serif" font-size="14.00" fill="#000000"> &#160;Providers</text>
<polygon fill="#fb8072" stroke="transparent" points="407,-10 407,-30 427,-30 427,-10 407,-10"/>
<text text-anchor="start" x="430.7258" y="-15.4" font-family="sans-serif" font-size="14.00" fill="#000000"> &#160;Exports</text>
<g id="clust1" class="cluster">
<title>cluster_SharedModule</title>
<polygon fill="none" stroke="#000000" stroke-dasharray="1,5" points="8,-70 8,-268 490,-268 490,-70 8,-70"/>
</g>
<g id="clust2" class="cluster">
<title>cluster_SharedModule_declarations</title>
<polygon fill="none" stroke="#000000" points="21,-78 21,-130 477,-130 477,-78 21,-78"/>
</g>
<g id="clust7" class="cluster">
<title>cluster_SharedModule_exports</title>
<polygon fill="none" stroke="#000000" points="16,-208 16,-260 482,-260 482,-208 16,-208"/>
</g>
<!-- ChangeColorIntervalDirective -->
<g id="node1" class="node">
<title>ChangeColorIntervalDirective</title>
<polygon fill="#ffffb3" stroke="#000000" points="469.2682,-122 282.7318,-122 282.7318,-86 469.2682,-86 469.2682,-122"/>
<text text-anchor="middle" x="376" y="-99.8" font-family="Times,serif" font-size="14.00" fill="#000000">ChangeColorIntervalDirective</text>
</g>
<!-- SharedModule -->
<g id="node4" class="node">
<title>SharedModule</title>
<polygon fill="#8dd3c7" stroke="#000000" points="264.4231,-187 261.4231,-191 240.4231,-191 237.4231,-187 165.5769,-187 165.5769,-151 264.4231,-151 264.4231,-187"/>
<text text-anchor="middle" x="215" y="-164.8" font-family="Times,serif" font-size="14.00" fill="#000000">SharedModule</text>
</g>
<!-- ChangeColorIntervalDirective&#45;&gt;SharedModule -->
<g id="edge1" class="edge">
<title>ChangeColorIntervalDirective&#45;&gt;SharedModule</title>
<path fill="none" stroke="#000000" d="M407.4613,-122.0225C407.4613,-139.3734 407.4613,-163 407.4613,-163 407.4613,-163 274.5636,-163 274.5636,-163"/>
<polygon fill="#000000" stroke="#000000" points="274.5636,-159.5001 264.5636,-163 274.5635,-166.5001 274.5636,-159.5001"/>
</g>
<!-- LimitCharPipe -->
<g id="node2" class="node">
<title>LimitCharPipe</title>
<polygon fill="#ffffb3" stroke="#000000" points="264.7148,-122 165.2852,-122 165.2852,-86 264.7148,-86 264.7148,-122"/>
<text text-anchor="middle" x="215" y="-99.8" font-family="Times,serif" font-size="14.00" fill="#000000">LimitCharPipe</text>
</g>
<!-- LimitCharPipe&#45;&gt;SharedModule -->
<g id="edge2" class="edge">
<title>LimitCharPipe&#45;&gt;SharedModule</title>
<path fill="none" stroke="#000000" d="M215,-122.1061C215,-122.1061 215,-140.991 215,-140.991"/>
<polygon fill="#000000" stroke="#000000" points="211.5001,-140.9909 215,-150.991 218.5001,-140.991 211.5001,-140.9909"/>
</g>
<!-- ModalComponent -->
<g id="node3" class="node">
<title>ModalComponent</title>
<polygon fill="#ffffb3" stroke="#000000" points="146.8823,-122 29.1177,-122 29.1177,-86 146.8823,-86 146.8823,-122"/>
<text text-anchor="middle" x="88" y="-99.8" font-family="Times,serif" font-size="14.00" fill="#000000">ModalComponent</text>
</g>
<!-- ModalComponent&#45;&gt;SharedModule -->
<g id="edge3" class="edge">
<title>ModalComponent&#45;&gt;SharedModule</title>
<path fill="none" stroke="#000000" d="M106.8137,-122.0225C106.8137,-139.3734 106.8137,-163 106.8137,-163 106.8137,-163 155.6557,-163 155.6557,-163"/>
<polygon fill="#000000" stroke="#000000" points="155.6557,-166.5001 165.6557,-163 155.6557,-159.5001 155.6557,-166.5001"/>
</g>
<!-- ChangeColorIntervalDirective  -->
<g id="node5" class="node">
<title>ChangeColorIntervalDirective </title>
<polygon fill="#fb8072" stroke="#000000" points="473.7681,-252 284.2319,-252 284.2319,-216 473.7681,-216 473.7681,-252"/>
<text text-anchor="middle" x="379" y="-229.8" font-family="Times,serif" font-size="14.00" fill="#000000">ChangeColorIntervalDirective </text>
</g>
<!-- SharedModule&#45;&gt;ChangeColorIntervalDirective  -->
<g id="edge4" class="edge">
<title>SharedModule&#45;&gt;ChangeColorIntervalDirective </title>
<path fill="none" stroke="#000000" stroke-dasharray="5,2" d="M264.4456,-175C301.4826,-175 345.7887,-175 345.7887,-175 345.7887,-175 345.7887,-205.9775 345.7887,-205.9775"/>
<polygon fill="#000000" stroke="#000000" points="342.2888,-205.9774 345.7887,-215.9775 349.2888,-205.9775 342.2888,-205.9774"/>
</g>
<!-- LimitCharPipe  -->
<g id="node6" class="node">
<title>LimitCharPipe </title>
<polygon fill="#fb8072" stroke="#000000" points="266.215,-252 163.785,-252 163.785,-216 266.215,-216 266.215,-252"/>
<text text-anchor="middle" x="215" y="-229.8" font-family="Times,serif" font-size="14.00" fill="#000000">LimitCharPipe </text>
</g>
<!-- SharedModule&#45;&gt;LimitCharPipe  -->
<g id="edge5" class="edge">
<title>SharedModule&#45;&gt;LimitCharPipe </title>
<path fill="none" stroke="#000000" stroke-dasharray="5,2" d="M215,-187.1061C215,-187.1061 215,-205.991 215,-205.991"/>
<polygon fill="#000000" stroke="#000000" points="211.5001,-205.9909 215,-215.991 218.5001,-205.991 211.5001,-205.9909"/>
</g>
<!-- ModalComponent  -->
<g id="node7" class="node">
<title>ModalComponent </title>
<polygon fill="#fb8072" stroke="#000000" points="145.8828,-252 24.1172,-252 24.1172,-216 145.8828,-216 145.8828,-252"/>
<text text-anchor="middle" x="85" y="-229.8" font-family="Times,serif" font-size="14.00" fill="#000000">ModalComponent </text>
</g>
<!-- SharedModule&#45;&gt;ModalComponent  -->
<g id="edge6" class="edge">
<title>SharedModule&#45;&gt;ModalComponent </title>
<path fill="none" stroke="#000000" stroke-dasharray="5,2" d="M165.6208,-175C122.8973,-175 67.9363,-175 67.9363,-175 67.9363,-175 67.9363,-205.9775 67.9363,-205.9775"/>
<polygon fill="#000000" stroke="#000000" points="64.4364,-205.9774 67.9363,-215.9775 71.4364,-205.9775 64.4364,-205.9774"/>
</g>
</g>
</svg>
