<?xml version="1.0" encoding="UTF-8" standalone="no"?>
<!DOCTYPE svg PUBLIC "-//W3C//DTD SVG 1.1//EN"
 "http://www.w3.org/Graphics/SVG/1.1/DTD/svg11.dtd">
<!-- Generated by graphviz version 2.40.1 (20161225.0304)
 -->
<!-- Title: dependencies Pages: 1 -->
<svg width="600pt" height="284pt"
 viewBox="0.00 0.00 600.00 284.00" xmlns="http://www.w3.org/2000/svg" xmlns:xlink="http://www.w3.org/1999/xlink">
<g id="graph0" class="graph" transform="scale(1 1) rotate(0) translate(4 280)">
<title>dependencies</title>
<polygon fill="#ffffff" stroke="transparent" points="-4,4 -4,-280 596,-280 596,4 -4,4"/>
<text text-anchor="start" x="275.0091" y="-42.4" font-family="sans-serif" font-weight="bold" font-size="14.00" fill="#000000">Legend</text>
<polygon fill="#ffffb3" stroke="transparent" points="62,-10 62,-30 82,-30 82,-10 62,-10"/>
<text text-anchor="start" x="85.629" y="-15.4" font-family="sans-serif" font-size="14.00" fill="#000000"> &#160;Declarations</text>
<polygon fill="#8dd3c7" stroke="transparent" points="175,-10 175,-30 195,-30 195,-10 175,-10"/>
<text text-anchor="start" x="198.7251" y="-15.4" font-family="sans-serif" font-size="14.00" fill="#000000"> &#160;Module</text>
<polygon fill="#80b1d3" stroke="transparent" points="261,-10 261,-30 281,-30 281,-10 261,-10"/>
<text text-anchor="start" x="284.7812" y="-15.4" font-family="sans-serif" font-size="14.00" fill="#000000"> &#160;Bootstrap</text>
<polygon fill="#fdb462" stroke="transparent" points="358,-10 358,-30 378,-30 378,-10 358,-10"/>
<text text-anchor="start" x="381.6732" y="-15.4" font-family="sans-serif" font-size="14.00" fill="#000000"> &#160;Providers</text>
<polygon fill="#fb8072" stroke="transparent" points="454,-10 454,-30 474,-30 474,-10 454,-10"/>
<text text-anchor="start" x="477.7258" y="-15.4" font-family="sans-serif" font-size="14.00" fill="#000000"> &#160;Exports</text>
<g id="clust1" class="cluster">
<title>cluster_PostsModule</title>
<polygon fill="none" stroke="#000000" stroke-dasharray="1,5" points="8,-70 8,-268 584,-268 584,-70 8,-70"/>
</g>
<g id="clust2" class="cluster">
<title>cluster_PostsModule_declarations</title>
<polygon fill="none" stroke="#000000" points="290,-78 290,-130 576,-130 576,-78 290,-78"/>
</g>
<g id="clust5" class="cluster">
<title>cluster_PostsModule_imports</title>
<polygon fill="none" stroke="#000000" points="16,-78 16,-130 282,-130 282,-78 16,-78"/>
</g>
<g id="clust6" class="cluster">
<title>cluster_PostsModule_exports</title>
<polygon fill="none" stroke="#000000" points="215,-208 215,-260 345,-260 345,-208 215,-208"/>
</g>
<!-- CommentsComponent -->
<g id="node1" class="node">
<title>CommentsComponent</title>
<polygon fill="#ffffb3" stroke="#000000" points="568,-122 426,-122 426,-86 568,-86 568,-122"/>
<text text-anchor="middle" x="497" y="-99.8" font-family="Times,serif" font-size="14.00" fill="#000000">CommentsComponent</text>
</g>
<!-- PostsModule -->
<g id="node3" class="node">
<title>PostsModule</title>
<polygon fill="#8dd3c7" stroke="#000000" points="324.6123,-187 321.6123,-191 300.6123,-191 297.6123,-187 235.3877,-187 235.3877,-151 324.6123,-151 324.6123,-187"/>
<text text-anchor="middle" x="280" y="-164.8" font-family="Times,serif" font-size="14.00" fill="#000000">PostsModule</text>
</g>
<!-- CommentsComponent&#45;&gt;PostsModule -->
<g id="edge1" class="edge">
<title>CommentsComponent&#45;&gt;PostsModule</title>
<path fill="none" stroke="#000000" d="M497,-122.1061C497,-141.3391 497,-169 497,-169 497,-169 334.6994,-169 334.6994,-169"/>
<polygon fill="#000000" stroke="#000000" points="334.6995,-165.5001 324.6994,-169 334.6994,-172.5001 334.6995,-165.5001"/>
</g>
<!-- PostsComponent -->
<g id="node2" class="node">
<title>PostsComponent</title>
<polygon fill="#ffffb3" stroke="#000000" points="408.3948,-122 297.6052,-122 297.6052,-86 408.3948,-86 408.3948,-122"/>
<text text-anchor="middle" x="353" y="-99.8" font-family="Times,serif" font-size="14.00" fill="#000000">PostsComponent</text>
</g>
<!-- PostsComponent&#45;&gt;PostsModule -->
<g id="edge2" class="edge">
<title>PostsComponent&#45;&gt;PostsModule</title>
<path fill="none" stroke="#000000" d="M311.0544,-122.1061C311.0544,-122.1061 311.0544,-140.991 311.0544,-140.991"/>
<polygon fill="#000000" stroke="#000000" points="307.5544,-140.9909 311.0544,-150.991 314.5544,-140.991 307.5544,-140.9909"/>
</g>
<!-- PostsComponent  -->
<g id="node6" class="node">
<title>PostsComponent </title>
<polygon fill="#fb8072" stroke="#000000" points="337.3955,-252 222.6045,-252 222.6045,-216 337.3955,-216 337.3955,-252"/>
<text text-anchor="middle" x="280" y="-229.8" font-family="Times,serif" font-size="14.00" fill="#000000">PostsComponent </text>
</g>
<!-- PostsModule&#45;&gt;PostsComponent  -->
<g id="edge5" class="edge">
<title>PostsModule&#45;&gt;PostsComponent </title>
<path fill="none" stroke="#000000" stroke-dasharray="5,2" d="M280,-187.1061C280,-187.1061 280,-205.991 280,-205.991"/>
<polygon fill="#000000" stroke="#000000" points="276.5001,-205.9909 280,-215.991 283.5001,-205.991 276.5001,-205.9909"/>
</g>
<!-- PostsRoutingModule -->
<g id="node4" class="node">
<title>PostsRoutingModule</title>
<polygon fill="#8dd3c7" stroke="#000000" points="274.2302,-122 271.2302,-126 250.2302,-126 247.2302,-122 139.7698,-122 139.7698,-86 274.2302,-86 274.2302,-122"/>
<text text-anchor="middle" x="207" y="-99.8" font-family="Times,serif" font-size="14.00" fill="#000000">PostsRoutingModule</text>
</g>
<!-- PostsRoutingModule&#45;&gt;PostsModule -->
<g id="edge3" class="edge">
<title>PostsRoutingModule&#45;&gt;PostsModule</title>
<path fill="none" stroke="#000000" d="M254.7795,-122.1061C254.7795,-122.1061 254.7795,-140.991 254.7795,-140.991"/>
<polygon fill="#000000" stroke="#000000" points="251.2795,-140.9909 254.7795,-150.991 258.2795,-140.991 251.2795,-140.9909"/>
</g>
<!-- SharedModule -->
<g id="node5" class="node">
<title>SharedModule</title>
<polygon fill="#8dd3c7" stroke="#000000" points="122.4231,-122 119.4231,-126 98.4231,-126 95.4231,-122 23.5769,-122 23.5769,-86 122.4231,-86 122.4231,-122"/>
<text text-anchor="middle" x="73" y="-99.8" font-family="Times,serif" font-size="14.00" fill="#000000">SharedModule</text>
</g>
<!-- SharedModule&#45;&gt;PostsModule -->
<g id="edge4" class="edge">
<title>SharedModule&#45;&gt;PostsModule</title>
<path fill="none" stroke="#000000" d="M73,-122.1061C73,-141.3391 73,-169 73,-169 73,-169 225.3389,-169 225.3389,-169"/>
<polygon fill="#000000" stroke="#000000" points="225.339,-172.5001 235.3389,-169 225.3389,-165.5001 225.339,-172.5001"/>
</g>
</g>
</svg>
