<?xml version="1.0" encoding="UTF-8" standalone="no"?>
<!DOCTYPE svg PUBLIC "-//W3C//DTD SVG 1.1//EN"
 "http://www.w3.org/Graphics/SVG/1.1/DTD/svg11.dtd">
<!-- Generated by graphviz version 2.40.1 (20161225.0304)
 -->
<!-- Title: dependencies Pages: 1 -->
<svg width="738pt" height="284pt"
 viewBox="0.00 0.00 738.00 284.00" xmlns="http://www.w3.org/2000/svg" xmlns:xlink="http://www.w3.org/1999/xlink">
<g id="graph0" class="graph" transform="scale(1 1) rotate(0) translate(4 280)">
<title>dependencies</title>
<polygon fill="#ffffff" stroke="transparent" points="-4,4 -4,-280 734,-280 734,4 -4,4"/>
<text text-anchor="start" x="344.0091" y="-42.4" font-family="sans-serif" font-weight="bold" font-size="14.00" fill="#000000">Legend</text>
<polygon fill="#ffffb3" stroke="transparent" points="131,-10 131,-30 151,-30 151,-10 131,-10"/>
<text text-anchor="start" x="154.629" y="-15.4" font-family="sans-serif" font-size="14.00" fill="#000000"> &#160;Declarations</text>
<polygon fill="#8dd3c7" stroke="transparent" points="244,-10 244,-30 264,-30 264,-10 244,-10"/>
<text text-anchor="start" x="267.7251" y="-15.4" font-family="sans-serif" font-size="14.00" fill="#000000"> &#160;Module</text>
<polygon fill="#80b1d3" stroke="transparent" points="330,-10 330,-30 350,-30 350,-10 330,-10"/>
<text text-anchor="start" x="353.7812" y="-15.4" font-family="sans-serif" font-size="14.00" fill="#000000"> &#160;Bootstrap</text>
<polygon fill="#fdb462" stroke="transparent" points="427,-10 427,-30 447,-30 447,-10 427,-10"/>
<text text-anchor="start" x="450.6732" y="-15.4" font-family="sans-serif" font-size="14.00" fill="#000000"> &#160;Providers</text>
<polygon fill="#fb8072" stroke="transparent" points="523,-10 523,-30 543,-30 543,-10 523,-10"/>
<text text-anchor="start" x="546.7258" y="-15.4" font-family="sans-serif" font-size="14.00" fill="#000000"> &#160;Exports</text>
<g id="clust1" class="cluster">
<title>cluster_HomeModule</title>
<polygon fill="none" stroke="#000000" stroke-dasharray="1,5" points="8,-70 8,-268 722,-268 722,-70 8,-70"/>
</g>
<g id="clust2" class="cluster">
<title>cluster_HomeModule_declarations</title>
<polygon fill="none" stroke="#000000" points="138,-78 138,-130 714,-130 714,-78 138,-78"/>
</g>
<g id="clust7" class="cluster">
<title>cluster_HomeModule_imports</title>
<polygon fill="none" stroke="#000000" points="16,-78 16,-130 130,-130 130,-78 16,-78"/>
</g>
<g id="clust8" class="cluster">
<title>cluster_HomeModule_exports</title>
<polygon fill="none" stroke="#000000" points="70,-208 70,-260 661,-260 661,-208 70,-208"/>
</g>
<!-- CanvasComponent -->
<g id="node1" class="node">
<title>CanvasComponent</title>
<polygon fill="#ffffb3" stroke="#000000" points="706.0436,-122 583.9564,-122 583.9564,-86 706.0436,-86 706.0436,-122"/>
<text text-anchor="middle" x="645" y="-99.8" font-family="Times,serif" font-size="14.00" fill="#000000">CanvasComponent</text>
</g>
<!-- HomeModule -->
<g id="node5" class="node">
<title>HomeModule</title>
<polygon fill="#8dd3c7" stroke="#000000" points="392.7619,-187 389.7619,-191 368.7619,-191 365.7619,-187 299.2381,-187 299.2381,-151 392.7619,-151 392.7619,-187"/>
<text text-anchor="middle" x="346" y="-164.8" font-family="Times,serif" font-size="14.00" fill="#000000">HomeModule</text>
</g>
<!-- CanvasComponent&#45;&gt;HomeModule -->
<g id="edge1" class="edge">
<title>CanvasComponent&#45;&gt;HomeModule</title>
<path fill="none" stroke="#000000" d="M618.375,-122.1061C618.375,-141.3391 618.375,-169 618.375,-169 618.375,-169 402.8229,-169 402.8229,-169"/>
<polygon fill="#000000" stroke="#000000" points="402.823,-165.5001 392.8229,-169 402.8229,-172.5001 402.823,-165.5001"/>
</g>
<!-- CardsgameComponent -->
<g id="node2" class="node">
<title>CardsgameComponent</title>
<polygon fill="#ffffb3" stroke="#000000" points="566.3089,-122 421.6911,-122 421.6911,-86 566.3089,-86 566.3089,-122"/>
<text text-anchor="middle" x="494" y="-99.8" font-family="Times,serif" font-size="14.00" fill="#000000">CardsgameComponent</text>
</g>
<!-- CardsgameComponent&#45;&gt;HomeModule -->
<g id="edge2" class="edge">
<title>CardsgameComponent&#45;&gt;HomeModule</title>
<path fill="none" stroke="#000000" d="M465.375,-122.027C465.375,-138.3976 465.375,-160 465.375,-160 465.375,-160 402.8375,-160 402.8375,-160"/>
<polygon fill="#000000" stroke="#000000" points="402.8376,-156.5001 392.8375,-160 402.8375,-163.5001 402.8376,-156.5001"/>
</g>
<!-- HomeComponent -->
<g id="node3" class="node">
<title>HomeComponent</title>
<polygon fill="#ffffb3" stroke="#000000" points="403.5451,-122 288.4549,-122 288.4549,-86 403.5451,-86 403.5451,-122"/>
<text text-anchor="middle" x="346" y="-99.8" font-family="Times,serif" font-size="14.00" fill="#000000">HomeComponent</text>
</g>
<!-- HomeComponent&#45;&gt;HomeModule -->
<g id="edge3" class="edge">
<title>HomeComponent&#45;&gt;HomeModule</title>
<path fill="none" stroke="#000000" d="M346,-122.1061C346,-122.1061 346,-140.991 346,-140.991"/>
<polygon fill="#000000" stroke="#000000" points="342.5001,-140.9909 346,-150.991 349.5001,-140.991 342.5001,-140.9909"/>
</g>
<!-- RelaxerComponent -->
<g id="node4" class="node">
<title>RelaxerComponent</title>
<polygon fill="#ffffb3" stroke="#000000" points="270.3641,-122 145.6359,-122 145.6359,-86 270.3641,-86 270.3641,-122"/>
<text text-anchor="middle" x="208" y="-99.8" font-family="Times,serif" font-size="14.00" fill="#000000">RelaxerComponent</text>
</g>
<!-- RelaxerComponent&#45;&gt;HomeModule -->
<g id="edge4" class="edge">
<title>RelaxerComponent&#45;&gt;HomeModule</title>
<path fill="none" stroke="#000000" d="M247.455,-122.027C247.455,-138.3976 247.455,-160 247.455,-160 247.455,-160 289.0364,-160 289.0364,-160"/>
<polygon fill="#000000" stroke="#000000" points="289.0364,-163.5001 299.0364,-160 289.0363,-156.5001 289.0364,-163.5001"/>
</g>
<!-- CanvasComponent  -->
<g id="node7" class="node">
<title>CanvasComponent </title>
<polygon fill="#fb8072" stroke="#000000" points="653.0428,-252 526.9572,-252 526.9572,-216 653.0428,-216 653.0428,-252"/>
<text text-anchor="middle" x="590" y="-229.8" font-family="Times,serif" font-size="14.00" fill="#000000">CanvasComponent </text>
</g>
<!-- HomeModule&#45;&gt;CanvasComponent  -->
<g id="edge6" class="edge">
<title>HomeModule&#45;&gt;CanvasComponent </title>
<path fill="none" stroke="#000000" stroke-dasharray="5,2" d="M392.7708,-178C452.0366,-178 546.5665,-178 546.5665,-178 546.5665,-178 546.5665,-205.973 546.5665,-205.973"/>
<polygon fill="#000000" stroke="#000000" points="543.0665,-205.973 546.5665,-215.973 550.0665,-205.973 543.0665,-205.973"/>
</g>
<!-- CardsgameComponent  -->
<g id="node8" class="node">
<title>CardsgameComponent </title>
<polygon fill="#fb8072" stroke="#000000" points="508.8087,-252 361.1913,-252 361.1913,-216 508.8087,-216 508.8087,-252"/>
<text text-anchor="middle" x="435" y="-229.8" font-family="Times,serif" font-size="14.00" fill="#000000">CardsgameComponent </text>
</g>
<!-- HomeModule&#45;&gt;CardsgameComponent  -->
<g id="edge7" class="edge">
<title>HomeModule&#45;&gt;CardsgameComponent </title>
<path fill="none" stroke="#000000" stroke-dasharray="5,2" d="M376.9883,-187.1061C376.9883,-187.1061 376.9883,-205.991 376.9883,-205.991"/>
<polygon fill="#000000" stroke="#000000" points="373.4883,-205.9909 376.9883,-215.991 380.4883,-205.991 373.4883,-205.9909"/>
</g>
<!-- HomeComponent  -->
<g id="node9" class="node">
<title>HomeComponent </title>
<polygon fill="#fb8072" stroke="#000000" points="343.5442,-252 224.4558,-252 224.4558,-216 343.5442,-216 343.5442,-252"/>
<text text-anchor="middle" x="284" y="-229.8" font-family="Times,serif" font-size="14.00" fill="#000000">HomeComponent </text>
</g>
<!-- HomeModule&#45;&gt;HomeComponent  -->
<g id="edge8" class="edge">
<title>HomeModule&#45;&gt;HomeComponent </title>
<path fill="none" stroke="#000000" stroke-dasharray="5,2" d="M321.3207,-187.1061C321.3207,-187.1061 321.3207,-205.991 321.3207,-205.991"/>
<polygon fill="#000000" stroke="#000000" points="317.8207,-205.9909 321.3207,-215.991 324.8207,-205.991 317.8207,-205.9909"/>
</g>
<!-- RelaxerComponent  -->
<g id="node10" class="node">
<title>RelaxerComponent </title>
<polygon fill="#fb8072" stroke="#000000" points="206.3645,-252 77.6355,-252 77.6355,-216 206.3645,-216 206.3645,-252"/>
<text text-anchor="middle" x="142" y="-229.8" font-family="Times,serif" font-size="14.00" fill="#000000">RelaxerComponent </text>
</g>
<!-- HomeModule&#45;&gt;RelaxerComponent  -->
<g id="edge9" class="edge">
<title>HomeModule&#45;&gt;RelaxerComponent </title>
<path fill="none" stroke="#000000" stroke-dasharray="5,2" d="M299.0623,-178C248.7063,-178 175.875,-178 175.875,-178 175.875,-178 175.875,-205.973 175.875,-205.973"/>
<polygon fill="#000000" stroke="#000000" points="172.3751,-205.973 175.875,-215.973 179.3751,-205.973 172.3751,-205.973"/>
</g>
<!-- SharedModule -->
<g id="node6" class="node">
<title>SharedModule</title>
<polygon fill="#8dd3c7" stroke="#000000" points="122.4231,-122 119.4231,-126 98.4231,-126 95.4231,-122 23.5769,-122 23.5769,-86 122.4231,-86 122.4231,-122"/>
<text text-anchor="middle" x="73" y="-99.8" font-family="Times,serif" font-size="14.00" fill="#000000">SharedModule</text>
</g>
<!-- SharedModule&#45;&gt;HomeModule -->
<g id="edge5" class="edge">
<title>SharedModule&#45;&gt;HomeModule</title>
<path fill="none" stroke="#000000" d="M100.0146,-122.1061C100.0146,-141.3391 100.0146,-169 100.0145,-169 100.0145,-169 289.153,-169 289.153,-169"/>
<polygon fill="#000000" stroke="#000000" points="289.1531,-172.5001 299.153,-169 289.153,-165.5001 289.1531,-172.5001"/>
</g>
</g>
</svg>
