<?xml version="1.0" encoding="UTF-8" standalone="no"?>
<!DOCTYPE svg PUBLIC "-//W3C//DTD SVG 1.1//EN"
 "http://www.w3.org/Graphics/SVG/1.1/DTD/svg11.dtd">
<!-- Generated by graphviz version 2.40.1 (20161225.0304)
 -->
<!-- Title: dependencies Pages: 1 -->
<svg width="857pt" height="284pt"
 viewBox="0.00 0.00 857.00 284.00" xmlns="http://www.w3.org/2000/svg" xmlns:xlink="http://www.w3.org/1999/xlink">
<g id="graph0" class="graph" transform="scale(1 1) rotate(0) translate(4 280)">
<title>dependencies</title>
<polygon fill="#ffffff" stroke="transparent" points="-4,4 -4,-280 853,-280 853,4 -4,4"/>
<text text-anchor="start" x="403.5091" y="-42.4" font-family="sans-serif" font-weight="bold" font-size="14.00" fill="#000000">Legend</text>
<polygon fill="#ffffb3" stroke="transparent" points="190.5,-10 190.5,-30 210.5,-30 210.5,-10 190.5,-10"/>
<text text-anchor="start" x="214.129" y="-15.4" font-family="sans-serif" font-size="14.00" fill="#000000"> &#160;Declarations</text>
<polygon fill="#8dd3c7" stroke="transparent" points="303.5,-10 303.5,-30 323.5,-30 323.5,-10 303.5,-10"/>
<text text-anchor="start" x="327.2251" y="-15.4" font-family="sans-serif" font-size="14.00" fill="#000000"> &#160;Module</text>
<polygon fill="#80b1d3" stroke="transparent" points="389.5,-10 389.5,-30 409.5,-30 409.5,-10 389.5,-10"/>
<text text-anchor="start" x="413.2812" y="-15.4" font-family="sans-serif" font-size="14.00" fill="#000000"> &#160;Bootstrap</text>
<polygon fill="#fdb462" stroke="transparent" points="486.5,-10 486.5,-30 506.5,-30 506.5,-10 486.5,-10"/>
<text text-anchor="start" x="510.1732" y="-15.4" font-family="sans-serif" font-size="14.00" fill="#000000"> &#160;Providers</text>
<polygon fill="#fb8072" stroke="transparent" points="582.5,-10 582.5,-30 602.5,-30 602.5,-10 582.5,-10"/>
<text text-anchor="start" x="606.2258" y="-15.4" font-family="sans-serif" font-size="14.00" fill="#000000"> &#160;Exports</text>
<g id="clust1" class="cluster">
<title>cluster_AppModule</title>
<polygon fill="none" stroke="#000000" stroke-dasharray="1,5" points="8,-70 8,-268 841,-268 841,-70 8,-70"/>
</g>
<g id="clust2" class="cluster">
<title>cluster_AppModule_declarations</title>
<polygon fill="none" stroke="#000000" points="608,-78 608,-130 833,-130 833,-78 608,-78"/>
</g>
<g id="clust5" class="cluster">
<title>cluster_AppModule_imports</title>
<polygon fill="none" stroke="#000000" points="16,-78 16,-130 600,-130 600,-78 16,-78"/>
</g>
<g id="clust7" class="cluster">
<title>cluster_AppModule_bootstrap</title>
<polygon fill="none" stroke="#000000" points="340,-208 340,-260 464,-260 464,-208 340,-208"/>
</g>
<!-- AppComponent -->
<g id="node1" class="node">
<title>AppComponent</title>
<polygon fill="#ffffb3" stroke="#000000" points="824.9399,-122 719.0601,-122 719.0601,-86 824.9399,-86 824.9399,-122"/>
<text text-anchor="middle" x="772" y="-99.8" font-family="Times,serif" font-size="14.00" fill="#000000">AppComponent</text>
</g>
<!-- AppModule -->
<g id="node3" class="node">
<title>AppModule</title>
<polygon fill="#8dd3c7" stroke="#000000" points="443.6571,-187 440.6571,-191 419.6571,-191 416.6571,-187 360.3429,-187 360.3429,-151 443.6571,-151 443.6571,-187"/>
<text text-anchor="middle" x="402" y="-164.8" font-family="Times,serif" font-size="14.00" fill="#000000">AppModule</text>
</g>
<!-- AppComponent&#45;&gt;AppModule -->
<g id="edge1" class="edge">
<title>AppComponent&#45;&gt;AppModule</title>
<path fill="none" stroke="#000000" d="M772,-122.2921C772,-144.2057 772,-178 772,-178 772,-178 453.7245,-178 453.7245,-178"/>
<polygon fill="#000000" stroke="#000000" points="453.7245,-174.5001 443.7245,-178 453.7244,-181.5001 453.7245,-174.5001"/>
</g>
<!-- MyPipePipe -->
<g id="node2" class="node">
<title>MyPipePipe</title>
<polygon fill="#ffffb3" stroke="#000000" points="701.7205,-122 616.2795,-122 616.2795,-86 701.7205,-86 701.7205,-122"/>
<text text-anchor="middle" x="659" y="-99.8" font-family="Times,serif" font-size="14.00" fill="#000000">MyPipePipe</text>
</g>
<!-- MyPipePipe&#45;&gt;AppModule -->
<g id="edge2" class="edge">
<title>MyPipePipe&#45;&gt;AppModule</title>
<path fill="none" stroke="#000000" d="M659,-122.1061C659,-141.3391 659,-169 659,-169 659,-169 453.8635,-169 453.8635,-169"/>
<polygon fill="#000000" stroke="#000000" points="453.8635,-165.5001 443.8635,-169 453.8634,-172.5001 453.8635,-165.5001"/>
</g>
<!-- AppComponent  -->
<g id="node9" class="node">
<title>AppComponent </title>
<polygon fill="#80b1d3" stroke="#000000" points="456.439,-252 347.561,-252 347.561,-216 456.439,-216 456.439,-252"/>
<text text-anchor="middle" x="402" y="-229.8" font-family="Times,serif" font-size="14.00" fill="#000000">AppComponent </text>
</g>
<!-- AppModule&#45;&gt;AppComponent  -->
<g id="edge8" class="edge">
<title>AppModule&#45;&gt;AppComponent </title>
<path fill="none" stroke="#000000" stroke-dasharray="1,5" d="M402,-187.1061C402,-187.1061 402,-205.991 402,-205.991"/>
<polygon fill="#000000" stroke="#000000" points="398.5001,-205.9909 402,-215.991 405.5001,-205.991 398.5001,-205.9909"/>
</g>
<!-- AppRoutingModule -->
<g id="node4" class="node">
<title>AppRoutingModule</title>
<polygon fill="#8dd3c7" stroke="#000000" points="592.2744,-122 589.2744,-126 568.2744,-126 565.2744,-122 463.7256,-122 463.7256,-86 592.2744,-86 592.2744,-122"/>
<text text-anchor="middle" x="528" y="-99.8" font-family="Times,serif" font-size="14.00" fill="#000000">AppRoutingModule</text>
</g>
<!-- AppRoutingModule&#45;&gt;AppModule -->
<g id="edge3" class="edge">
<title>AppRoutingModule&#45;&gt;AppModule</title>
<path fill="none" stroke="#000000" d="M528,-122.027C528,-138.3976 528,-160 528,-160 528,-160 453.9562,-160 453.9562,-160"/>
<polygon fill="#000000" stroke="#000000" points="453.9562,-156.5001 443.9562,-160 453.9561,-163.5001 453.9562,-156.5001"/>
</g>
<!-- CoreModule -->
<g id="node5" class="node">
<title>CoreModule</title>
<polygon fill="#8dd3c7" stroke="#000000" points="445.2619,-122 442.2619,-126 421.2619,-126 418.2619,-122 358.7381,-122 358.7381,-86 445.2619,-86 445.2619,-122"/>
<text text-anchor="middle" x="402" y="-99.8" font-family="Times,serif" font-size="14.00" fill="#000000">CoreModule</text>
</g>
<!-- CoreModule&#45;&gt;AppModule -->
<g id="edge4" class="edge">
<title>CoreModule&#45;&gt;AppModule</title>
<path fill="none" stroke="#000000" d="M402,-122.1061C402,-122.1061 402,-140.991 402,-140.991"/>
<polygon fill="#000000" stroke="#000000" points="398.5001,-140.9909 402,-150.991 405.5001,-140.991 398.5001,-140.9909"/>
</g>
<!-- HomeModule -->
<g id="node6" class="node">
<title>HomeModule</title>
<polygon fill="#8dd3c7" stroke="#000000" points="340.7619,-122 337.7619,-126 316.7619,-126 313.7619,-122 247.2381,-122 247.2381,-86 340.7619,-86 340.7619,-122"/>
<text text-anchor="middle" x="294" y="-99.8" font-family="Times,serif" font-size="14.00" fill="#000000">HomeModule</text>
</g>
<!-- HomeModule&#45;&gt;AppModule -->
<g id="edge5" class="edge">
<title>HomeModule&#45;&gt;AppModule</title>
<path fill="none" stroke="#000000" d="M294,-122.027C294,-138.3976 294,-160 294,-160 294,-160 350.2444,-160 350.2444,-160"/>
<polygon fill="#000000" stroke="#000000" points="350.2444,-163.5001 360.2444,-160 350.2443,-156.5001 350.2444,-163.5001"/>
</g>
<!-- MainModule -->
<g id="node7" class="node">
<title>MainModule</title>
<polygon fill="#8dd3c7" stroke="#000000" points="229.5997,-122 226.5997,-126 205.5997,-126 202.5997,-122 140.4003,-122 140.4003,-86 229.5997,-86 229.5997,-122"/>
<text text-anchor="middle" x="185" y="-99.8" font-family="Times,serif" font-size="14.00" fill="#000000">MainModule</text>
</g>
<!-- MainModule&#45;&gt;AppModule -->
<g id="edge6" class="edge">
<title>MainModule&#45;&gt;AppModule</title>
<path fill="none" stroke="#000000" d="M185,-122.1061C185,-141.3391 185,-169 185,-169 185,-169 350.1602,-169 350.1602,-169"/>
<polygon fill="#000000" stroke="#000000" points="350.1603,-172.5001 360.1602,-169 350.1602,-165.5001 350.1603,-172.5001"/>
</g>
<!-- SharedModule -->
<g id="node8" class="node">
<title>SharedModule</title>
<polygon fill="#8dd3c7" stroke="#000000" points="122.4231,-122 119.4231,-126 98.4231,-126 95.4231,-122 23.5769,-122 23.5769,-86 122.4231,-86 122.4231,-122"/>
<text text-anchor="middle" x="73" y="-99.8" font-family="Times,serif" font-size="14.00" fill="#000000">SharedModule</text>
</g>
<!-- SharedModule&#45;&gt;AppModule -->
<g id="edge7" class="edge">
<title>SharedModule&#45;&gt;AppModule</title>
<path fill="none" stroke="#000000" d="M73,-122.2921C73,-144.2057 73,-178 73,-178 73,-178 350.3319,-178 350.3319,-178"/>
<polygon fill="#000000" stroke="#000000" points="350.332,-181.5001 360.3319,-178 350.3319,-174.5001 350.332,-181.5001"/>
</g>
</g>
</svg>
