<?xml version="1.0" encoding="UTF-8" standalone="no"?>
<!DOCTYPE svg PUBLIC "-//W3C//DTD SVG 1.1//EN"
 "http://www.w3.org/Graphics/SVG/1.1/DTD/svg11.dtd">
<!-- Generated by graphviz version 2.40.1 (20161225.0304)
 -->
<!-- Title: dependencies Pages: 1 -->
<svg width="2781pt" height="366pt"
 viewBox="0.00 0.00 2781.00 366.00" xmlns="http://www.w3.org/2000/svg" xmlns:xlink="http://www.w3.org/1999/xlink">
<g id="graph0" class="graph" transform="scale(1 1) rotate(0) translate(4 362)">
<title>dependencies</title>
<polygon fill="#ffffff" stroke="transparent" points="-4,4 -4,-362 2777,-362 2777,4 -4,4"/>
<text text-anchor="start" x="1365.5091" y="-42.4" font-family="sans-serif" font-weight="bold" font-size="14.00" fill="#000000">Legend</text>
<polygon fill="#ffffb3" stroke="transparent" points="1152.5,-10 1152.5,-30 1172.5,-30 1172.5,-10 1152.5,-10"/>
<text text-anchor="start" x="1176.129" y="-15.4" font-family="sans-serif" font-size="14.00" fill="#000000"> &#160;Declarations</text>
<polygon fill="#8dd3c7" stroke="transparent" points="1265.5,-10 1265.5,-30 1285.5,-30 1285.5,-10 1265.5,-10"/>
<text text-anchor="start" x="1289.2251" y="-15.4" font-family="sans-serif" font-size="14.00" fill="#000000"> &#160;Module</text>
<polygon fill="#80b1d3" stroke="transparent" points="1351.5,-10 1351.5,-30 1371.5,-30 1371.5,-10 1351.5,-10"/>
<text text-anchor="start" x="1375.2812" y="-15.4" font-family="sans-serif" font-size="14.00" fill="#000000"> &#160;Bootstrap</text>
<polygon fill="#fdb462" stroke="transparent" points="1448.5,-10 1448.5,-30 1468.5,-30 1468.5,-10 1448.5,-10"/>
<text text-anchor="start" x="1472.1732" y="-15.4" font-family="sans-serif" font-size="14.00" fill="#000000"> &#160;Providers</text>
<polygon fill="#fb8072" stroke="transparent" points="1544.5,-10 1544.5,-30 1564.5,-30 1564.5,-10 1544.5,-10"/>
<text text-anchor="start" x="1568.2258" y="-15.4" font-family="sans-serif" font-size="14.00" fill="#000000"> &#160;Exports</text>
<g id="clust1" class="cluster">
<title>cluster_AppModule</title>
<polygon fill="none" stroke="#000000" stroke-dasharray="1,5" points="8,-70 8,-350 675,-350 675,-70 8,-70"/>
</g>
<g id="clust2" class="cluster">
<title>cluster_AppModule_declarations</title>
<polygon fill="none" stroke="#000000" points="68,-146 68,-198 293,-198 293,-146 68,-146"/>
</g>
<g id="clust5" class="cluster">
<title>cluster_AppModule_imports</title>
<polygon fill="none" stroke="#000000" points="301,-78 301,-198 667,-198 667,-78 301,-78"/>
</g>
<g id="clust7" class="cluster">
<title>cluster_AppModule_bootstrap</title>
<polygon fill="none" stroke="#000000" points="36,-290 36,-342 160,-342 160,-290 36,-290"/>
</g>
<g id="clust15" class="cluster">
<title>cluster_CoreModule</title>
<polygon fill="none" stroke="#000000" stroke-dasharray="1,5" points="683,-138 683,-206 1343,-206 1343,-138 683,-138"/>
</g>
<g id="clust16" class="cluster">
<title>cluster_CoreModule_declarations</title>
<polygon fill="none" stroke="#000000" points="1021,-146 1021,-198 1335,-198 1335,-146 1021,-146"/>
</g>
<g id="clust20" class="cluster">
<title>cluster_CoreModule_exports</title>
<polygon fill="none" stroke="#000000" points="691,-146 691,-198 1013,-198 1013,-146 691,-146"/>
</g>
<g id="clust23" class="cluster">
<title>cluster_HomeModule</title>
<polygon fill="none" stroke="#000000" stroke-dasharray="1,5" points="683,-214 683,-282 975,-282 975,-214 683,-214"/>
</g>
<g id="clust24" class="cluster">
<title>cluster_HomeModule_declarations</title>
<polygon fill="none" stroke="#000000" points="835,-222 835,-274 967,-274 967,-222 835,-222"/>
</g>
<g id="clust27" class="cluster">
<title>cluster_HomeModule_exports</title>
<polygon fill="none" stroke="#000000" points="691,-222 691,-274 827,-274 827,-222 691,-222"/>
</g>
<g id="clust30" class="cluster">
<title>cluster_PostsModule</title>
<polygon fill="none" stroke="#000000" stroke-dasharray="1,5" points="2305,-70 2305,-282 2765,-282 2765,-70 2305,-70"/>
</g>
<g id="clust31" class="cluster">
<title>cluster_PostsModule_declarations</title>
<polygon fill="none" stroke="#000000" points="2471,-78 2471,-130 2757,-130 2757,-78 2471,-78"/>
</g>
<g id="clust34" class="cluster">
<title>cluster_PostsModule_imports</title>
<polygon fill="none" stroke="#000000" points="2313,-78 2313,-130 2463,-130 2463,-78 2313,-78"/>
</g>
<g id="clust35" class="cluster">
<title>cluster_PostsModule_exports</title>
<polygon fill="none" stroke="#000000" points="2396,-222 2396,-274 2526,-274 2526,-222 2396,-222"/>
</g>
<g id="clust44" class="cluster">
<title>cluster_SharedModule</title>
<polygon fill="none" stroke="#000000" stroke-dasharray="1,5" points="1351,-138 1351,-206 2297,-206 2297,-138 1351,-138"/>
</g>
<g id="clust45" class="cluster">
<title>cluster_SharedModule_declarations</title>
<polygon fill="none" stroke="#000000" points="1833,-146 1833,-198 2289,-198 2289,-146 1833,-146"/>
</g>
<g id="clust50" class="cluster">
<title>cluster_SharedModule_exports</title>
<polygon fill="none" stroke="#000000" points="1359,-146 1359,-198 1825,-198 1825,-146 1359,-146"/>
</g>
<!-- AppComponent -->
<g id="node1" class="node">
<title>AppComponent</title>
<polygon fill="#ffffb3" stroke="#000000" points="284.9399,-190 179.0601,-190 179.0601,-154 284.9399,-154 284.9399,-190"/>
<text text-anchor="middle" x="232" y="-167.8" font-family="Times,serif" font-size="14.00" fill="#000000">AppComponent</text>
</g>
<!-- AppModule -->
<g id="node3" class="node">
<title>AppModule</title>
<polygon fill="#8dd3c7" stroke="#000000" points="139.6571,-266 136.6571,-270 115.6571,-270 112.6571,-266 56.3429,-266 56.3429,-230 139.6571,-230 139.6571,-266"/>
<text text-anchor="middle" x="98" y="-243.8" font-family="Times,serif" font-size="14.00" fill="#000000">AppModule</text>
</g>
<!-- AppComponent&#45;&gt;AppModule -->
<g id="edge1" class="edge">
<title>AppComponent&#45;&gt;AppModule</title>
<path fill="none" stroke="#000000" d="M232,-190.1289C232,-210.5724 232,-241 232,-241 232,-241 149.6639,-241 149.6639,-241"/>
<polygon fill="#000000" stroke="#000000" points="149.6639,-237.5001 139.6639,-241 149.6639,-244.5001 149.6639,-237.5001"/>
</g>
<!-- MyPipePipe -->
<g id="node2" class="node">
<title>MyPipePipe</title>
<polygon fill="#ffffb3" stroke="#000000" points="161.7205,-190 76.2795,-190 76.2795,-154 161.7205,-154 161.7205,-190"/>
<text text-anchor="middle" x="119" y="-167.8" font-family="Times,serif" font-size="14.00" fill="#000000">MyPipePipe</text>
</g>
<!-- MyPipePipe&#45;&gt;AppModule -->
<g id="edge2" class="edge">
<title>MyPipePipe&#45;&gt;AppModule</title>
<path fill="none" stroke="#000000" d="M108.1091,-190.0109C108.1091,-190.0109 108.1091,-219.855 108.1091,-219.855"/>
<polygon fill="#000000" stroke="#000000" points="104.6091,-219.8549 108.1091,-229.855 111.6091,-219.855 104.6091,-219.8549"/>
</g>
<!-- AppComponent  -->
<g id="node8" class="node">
<title>AppComponent </title>
<polygon fill="#80b1d3" stroke="#000000" points="152.439,-334 43.561,-334 43.561,-298 152.439,-298 152.439,-334"/>
<text text-anchor="middle" x="98" y="-311.8" font-family="Times,serif" font-size="14.00" fill="#000000">AppComponent </text>
</g>
<!-- AppModule&#45;&gt;AppComponent  -->
<g id="edge7" class="edge">
<title>AppModule&#45;&gt;AppComponent </title>
<path fill="none" stroke="#000000" stroke-dasharray="1,5" d="M98,-266.2228C98,-266.2228 98,-287.7269 98,-287.7269"/>
<polygon fill="#000000" stroke="#000000" points="94.5001,-287.7269 98,-297.7269 101.5001,-287.727 94.5001,-287.7269"/>
</g>
<!-- AppRoutingModule -->
<g id="node4" class="node">
<title>AppRoutingModule</title>
<polygon fill="#8dd3c7" stroke="#000000" points="437.2744,-122 434.2744,-126 413.2744,-126 410.2744,-122 308.7256,-122 308.7256,-86 437.2744,-86 437.2744,-122"/>
<text text-anchor="middle" x="373" y="-99.8" font-family="Times,serif" font-size="14.00" fill="#000000">AppRoutingModule</text>
</g>
<!-- AppRoutingModule&#45;&gt;AppModule -->
<g id="edge3" class="edge">
<title>AppRoutingModule&#45;&gt;AppModule</title>
<path fill="none" stroke="#000000" d="M373,-122.2733C373,-160.6253 373,-246 373,-246 373,-246 149.7666,-246 149.7666,-246"/>
<polygon fill="#000000" stroke="#000000" points="149.7666,-242.5001 139.7666,-246 149.7665,-249.5001 149.7666,-242.5001"/>
</g>
<!-- CoreModule -->
<g id="node5" class="node">
<title>CoreModule</title>
<polygon fill="#8dd3c7" stroke="#000000" points="542.2619,-122 539.2619,-126 518.2619,-126 515.2619,-122 455.7381,-122 455.7381,-86 542.2619,-86 542.2619,-122"/>
<text text-anchor="middle" x="499" y="-99.8" font-family="Times,serif" font-size="14.00" fill="#000000">CoreModule</text>
</g>
<!-- CoreModule&#45;&gt;AppModule -->
<g id="edge4" class="edge">
<title>CoreModule&#45;&gt;AppModule</title>
<path fill="none" stroke="#000000" d="M527.9205,-122.0251C527.9205,-161.2783 527.9205,-251 527.9205,-251 527.9205,-251 150.0054,-251 150.0054,-251"/>
<polygon fill="#000000" stroke="#000000" points="150.0054,-247.5001 140.0054,-251 150.0053,-254.5001 150.0054,-247.5001"/>
</g>
<!-- HeaderComponent  -->
<g id="node11" class="node">
<title>HeaderComponent </title>
<polygon fill="#fb8072" stroke="#000000" points="1004.7436,-190 879.2564,-190 879.2564,-154 1004.7436,-154 1004.7436,-190"/>
<text text-anchor="middle" x="942" y="-167.8" font-family="Times,serif" font-size="14.00" fill="#000000">HeaderComponent </text>
</g>
<!-- CoreModule&#45;&gt;HeaderComponent  -->
<g id="edge10" class="edge">
<title>CoreModule&#45;&gt;HeaderComponent </title>
<path fill="none" stroke="#000000" stroke-dasharray="5,2" d="M513.4603,-122.1097C513.4603,-131.897 513.4603,-142 513.4603,-142 513.4603,-142 942,-142 942,-142 942,-142 942,-143.8568 942,-143.8568"/>
<polygon fill="#000000" stroke="#000000" points="938.5001,-143.8568 942,-153.8568 945.5001,-143.8568 938.5001,-143.8568"/>
</g>
<!-- PageNotFundComponent  -->
<g id="node12" class="node">
<title>PageNotFundComponent </title>
<polygon fill="#fb8072" stroke="#000000" points="860.8241,-190 699.1759,-190 699.1759,-154 860.8241,-154 860.8241,-190"/>
<text text-anchor="middle" x="780" y="-167.8" font-family="Times,serif" font-size="14.00" fill="#000000">PageNotFundComponent </text>
</g>
<!-- CoreModule&#45;&gt;PageNotFundComponent  -->
<g id="edge11" class="edge">
<title>CoreModule&#45;&gt;PageNotFundComponent </title>
<path fill="none" stroke="#000000" stroke-dasharray="5,2" d="M499,-122.1505C499,-134.2708 499,-148 499,-148 499,-148 780,-148 780,-148 780,-148 780,-148.581 780,-148.581"/>
<polygon fill="#000000" stroke="#000000" points="776.5002,-143.8097 780,-153.8097 783.5002,-143.8098 776.5002,-143.8097"/>
</g>
<!-- HomeModule -->
<g id="node6" class="node">
<title>HomeModule</title>
<polygon fill="#8dd3c7" stroke="#000000" points="657.7619,-190 654.7619,-194 633.7619,-194 630.7619,-190 564.2381,-190 564.2381,-154 657.7619,-154 657.7619,-190"/>
<text text-anchor="middle" x="611" y="-167.8" font-family="Times,serif" font-size="14.00" fill="#000000">HomeModule</text>
</g>
<!-- HomeModule&#45;&gt;AppModule -->
<g id="edge5" class="edge">
<title>HomeModule&#45;&gt;AppModule</title>
<path fill="none" stroke="#000000" d="M587.5596,-190.0105C587.5596,-216.0165 587.5596,-261 587.5596,-261 587.5596,-261 149.7396,-261 149.7396,-261"/>
<polygon fill="#000000" stroke="#000000" points="149.7396,-257.5001 139.7396,-261 149.7395,-264.5001 149.7396,-257.5001"/>
</g>
<!-- HomeComponent  -->
<g id="node14" class="node">
<title>HomeComponent </title>
<polygon fill="#fb8072" stroke="#000000" points="818.5442,-266 699.4558,-266 699.4558,-230 818.5442,-230 818.5442,-266"/>
<text text-anchor="middle" x="759" y="-243.8" font-family="Times,serif" font-size="14.00" fill="#000000">HomeComponent </text>
</g>
<!-- HomeModule&#45;&gt;HomeComponent  -->
<g id="edge14" class="edge">
<title>HomeModule&#45;&gt;HomeComponent </title>
<path fill="none" stroke="#000000" stroke-dasharray="5,2" d="M634.4404,-190.1686C634.4404,-209.0898 634.4404,-236 634.4404,-236 634.4404,-236 689.274,-236 689.274,-236"/>
<polygon fill="#000000" stroke="#000000" points="689.274,-239.5001 699.274,-236 689.274,-232.5001 689.274,-239.5001"/>
</g>
<!-- SharedModule -->
<g id="node7" class="node">
<title>SharedModule</title>
<polygon fill="#8dd3c7" stroke="#000000" points="659.4231,-122 656.4231,-126 635.4231,-126 632.4231,-122 560.5769,-122 560.5769,-86 659.4231,-86 659.4231,-122"/>
<text text-anchor="middle" x="610" y="-99.8" font-family="Times,serif" font-size="14.00" fill="#000000">SharedModule</text>
</g>
<!-- SharedModule&#45;&gt;AppModule -->
<g id="edge6" class="edge">
<title>SharedModule&#45;&gt;AppModule</title>
<path fill="none" stroke="#000000" d="M560.7122,-104C555.2358,-104 551.5849,-104 551.5849,-104 551.5849,-104 551.5849,-256 551.5849,-256 551.5849,-256 149.8591,-256 149.8591,-256"/>
<polygon fill="#000000" stroke="#000000" points="149.8592,-252.5001 139.8591,-256 149.8591,-259.5001 149.8592,-252.5001"/>
</g>
<!-- SharedModule&#45;&gt;HomeModule -->
<g id="edge13" class="edge">
<title>SharedModule&#45;&gt;HomeModule</title>
<path fill="none" stroke="#000000" d="M611,-122.2228C611,-122.2228 611,-143.7269 611,-143.7269"/>
<polygon fill="#000000" stroke="#000000" points="607.5001,-143.7269 611,-153.7269 614.5001,-143.727 607.5001,-143.7269"/>
</g>
<!-- PostsModule -->
<g id="node17" class="node">
<title>PostsModule</title>
<polygon fill="#8dd3c7" stroke="#000000" points="2505.6123,-190 2502.6123,-194 2481.6123,-194 2478.6123,-190 2416.3877,-190 2416.3877,-154 2505.6123,-154 2505.6123,-190"/>
<text text-anchor="middle" x="2461" y="-167.8" font-family="Times,serif" font-size="14.00" fill="#000000">PostsModule</text>
</g>
<!-- SharedModule&#45;&gt;PostsModule -->
<g id="edge18" class="edge">
<title>SharedModule&#45;&gt;PostsModule</title>
<path fill="none" stroke="#000000" d="M659.2352,-91C937.5082,-91 2300.9131,-91 2300.9131,-91 2300.9131,-91 2300.9131,-172 2300.9131,-172 2300.9131,-172 2406.4069,-172 2406.4069,-172"/>
<polygon fill="#000000" stroke="#000000" points="2406.4069,-175.5001 2416.4069,-172 2406.4068,-168.5001 2406.4069,-175.5001"/>
</g>
<!-- ChangeColorIntervalDirective  -->
<g id="node23" class="node">
<title>ChangeColorIntervalDirective </title>
<polygon fill="#fb8072" stroke="#000000" points="1676.7681,-190 1487.2319,-190 1487.2319,-154 1676.7681,-154 1676.7681,-190"/>
<text text-anchor="middle" x="1582" y="-167.8" font-family="Times,serif" font-size="14.00" fill="#000000">ChangeColorIntervalDirective </text>
</g>
<!-- SharedModule&#45;&gt;ChangeColorIntervalDirective  -->
<g id="edge23" class="edge">
<title>SharedModule&#45;&gt;ChangeColorIntervalDirective </title>
<path fill="none" stroke="#000000" stroke-dasharray="5,2" d="M659.5379,-113C857.6126,-113 1582,-113 1582,-113 1582,-113 1582,-143.9775 1582,-143.9775"/>
<polygon fill="#000000" stroke="#000000" points="1578.5001,-143.9774 1582,-153.9775 1585.5001,-143.9775 1578.5001,-143.9774"/>
</g>
<!-- LimitCharPipe  -->
<g id="node24" class="node">
<title>LimitCharPipe </title>
<polygon fill="#fb8072" stroke="#000000" points="1469.215,-190 1366.785,-190 1366.785,-154 1469.215,-154 1469.215,-190"/>
<text text-anchor="middle" x="1418" y="-167.8" font-family="Times,serif" font-size="14.00" fill="#000000">LimitCharPipe </text>
</g>
<!-- SharedModule&#45;&gt;LimitCharPipe  -->
<g id="edge24" class="edge">
<title>SharedModule&#45;&gt;LimitCharPipe </title>
<path fill="none" stroke="#000000" stroke-dasharray="5,2" d="M659.3277,-118C834.7564,-118 1418,-118 1418,-118 1418,-118 1418,-143.7181 1418,-143.7181"/>
<polygon fill="#000000" stroke="#000000" points="1414.5001,-143.718 1418,-153.7181 1421.5001,-143.7181 1414.5001,-143.718"/>
</g>
<!-- ModalComponent  -->
<g id="node25" class="node">
<title>ModalComponent </title>
<polygon fill="#fb8072" stroke="#000000" points="1816.8828,-190 1695.1172,-190 1695.1172,-154 1816.8828,-154 1816.8828,-190"/>
<text text-anchor="middle" x="1756" y="-167.8" font-family="Times,serif" font-size="14.00" fill="#000000">ModalComponent </text>
</g>
<!-- SharedModule&#45;&gt;ModalComponent  -->
<g id="edge25" class="edge">
<title>SharedModule&#45;&gt;ModalComponent </title>
<path fill="none" stroke="#000000" stroke-dasharray="5,2" d="M659.2422,-109C878.5938,-109 1756,-109 1756,-109 1756,-109 1756,-143.7778 1756,-143.7778"/>
<polygon fill="#000000" stroke="#000000" points="1752.5001,-143.7778 1756,-153.7778 1759.5001,-143.7778 1752.5001,-143.7778"/>
</g>
<!-- HeaderComponent -->
<g id="node9" class="node">
<title>HeaderComponent</title>
<polygon fill="#ffffb3" stroke="#000000" points="1326.7437,-190 1205.2563,-190 1205.2563,-154 1326.7437,-154 1326.7437,-190"/>
<text text-anchor="middle" x="1266" y="-167.8" font-family="Times,serif" font-size="14.00" fill="#000000">HeaderComponent</text>
</g>
<!-- HeaderComponent&#45;&gt;CoreModule -->
<g id="edge8" class="edge">
<title>HeaderComponent&#45;&gt;CoreModule</title>
<path fill="none" stroke="#000000" d="M1266,-153.5146C1266,-141.8601 1266,-129 1266,-129 1266,-129 484.5397,-129 484.5397,-129 484.5397,-129 484.5397,-128.3169 484.5397,-128.3169"/>
<polygon fill="#000000" stroke="#000000" points="488.0399,-132.1686 484.5397,-122.1686 481.0399,-132.1687 488.0399,-132.1686"/>
</g>
<!-- PageNotFundComponent -->
<g id="node10" class="node">
<title>PageNotFundComponent</title>
<polygon fill="#ffffb3" stroke="#000000" points="1187.3243,-190 1028.6757,-190 1028.6757,-154 1187.3243,-154 1187.3243,-190"/>
<text text-anchor="middle" x="1108" y="-167.8" font-family="Times,serif" font-size="14.00" fill="#000000">PageNotFundComponent</text>
</g>
<!-- PageNotFundComponent&#45;&gt;CoreModule -->
<g id="edge9" class="edge">
<title>PageNotFundComponent&#45;&gt;CoreModule</title>
<path fill="none" stroke="#000000" d="M1108,-153.9336C1108,-144.5413 1108,-135 1108,-135 1108,-135 470.0795,-135 470.0795,-135 470.0795,-135 470.0795,-132.0328 470.0795,-132.0328"/>
<polygon fill="#000000" stroke="#000000" points="473.5796,-132.0328 470.0795,-122.0328 466.5796,-132.0329 473.5796,-132.0328"/>
</g>
<!-- HomeComponent -->
<g id="node13" class="node">
<title>HomeComponent</title>
<polygon fill="#ffffb3" stroke="#000000" points="958.5451,-266 843.4549,-266 843.4549,-230 958.5451,-230 958.5451,-266"/>
<text text-anchor="middle" x="901" y="-243.8" font-family="Times,serif" font-size="14.00" fill="#000000">HomeComponent</text>
</g>
<!-- HomeComponent&#45;&gt;HomeModule -->
<g id="edge12" class="edge">
<title>HomeComponent&#45;&gt;HomeModule</title>
<path fill="none" stroke="#000000" d="M852.07,-229.8903C852.07,-220.103 852.07,-210 852.07,-210 852.07,-210 611,-210 611,-210 611,-210 611,-200.1097 611,-200.1097"/>
<polygon fill="#000000" stroke="#000000" points="614.5001,-200.1096 611,-190.1097 607.5001,-200.1097 614.5001,-200.1096"/>
</g>
<!-- CommentsComponent -->
<g id="node15" class="node">
<title>CommentsComponent</title>
<polygon fill="#ffffb3" stroke="#000000" points="2749,-122 2607,-122 2607,-86 2749,-86 2749,-122"/>
<text text-anchor="middle" x="2678" y="-99.8" font-family="Times,serif" font-size="14.00" fill="#000000">CommentsComponent</text>
</g>
<!-- CommentsComponent&#45;&gt;PostsModule -->
<g id="edge15" class="edge">
<title>CommentsComponent&#45;&gt;PostsModule</title>
<path fill="none" stroke="#000000" d="M2678,-122.2228C2678,-142.3652 2678,-172 2678,-172 2678,-172 2515.6994,-172 2515.6994,-172"/>
<polygon fill="#000000" stroke="#000000" points="2515.6995,-168.5001 2505.6994,-172 2515.6994,-175.5001 2515.6995,-168.5001"/>
</g>
<!-- PostsComponent -->
<g id="node16" class="node">
<title>PostsComponent</title>
<polygon fill="#ffffb3" stroke="#000000" points="2589.3948,-122 2478.6052,-122 2478.6052,-86 2589.3948,-86 2589.3948,-122"/>
<text text-anchor="middle" x="2534" y="-99.8" font-family="Times,serif" font-size="14.00" fill="#000000">PostsComponent</text>
</g>
<!-- PostsComponent&#45;&gt;PostsModule -->
<g id="edge16" class="edge">
<title>PostsComponent&#45;&gt;PostsModule</title>
<path fill="none" stroke="#000000" d="M2492.0544,-122.2228C2492.0544,-122.2228 2492.0544,-143.7269 2492.0544,-143.7269"/>
<polygon fill="#000000" stroke="#000000" points="2488.5544,-143.7269 2492.0544,-153.7269 2495.5544,-143.727 2488.5544,-143.7269"/>
</g>
<!-- PostsComponent  -->
<g id="node19" class="node">
<title>PostsComponent </title>
<polygon fill="#fb8072" stroke="#000000" points="2518.3955,-266 2403.6045,-266 2403.6045,-230 2518.3955,-230 2518.3955,-266"/>
<text text-anchor="middle" x="2461" y="-243.8" font-family="Times,serif" font-size="14.00" fill="#000000">PostsComponent </text>
</g>
<!-- PostsModule&#45;&gt;PostsComponent  -->
<g id="edge19" class="edge">
<title>PostsModule&#45;&gt;PostsComponent </title>
<path fill="none" stroke="#000000" stroke-dasharray="5,2" d="M2461,-190.0109C2461,-190.0109 2461,-219.855 2461,-219.855"/>
<polygon fill="#000000" stroke="#000000" points="2457.5001,-219.8549 2461,-229.855 2464.5001,-219.855 2457.5001,-219.8549"/>
</g>
<!-- PostsRoutingModule -->
<g id="node18" class="node">
<title>PostsRoutingModule</title>
<polygon fill="#8dd3c7" stroke="#000000" points="2455.2302,-122 2452.2302,-126 2431.2302,-126 2428.2302,-122 2320.7698,-122 2320.7698,-86 2455.2302,-86 2455.2302,-122"/>
<text text-anchor="middle" x="2388" y="-99.8" font-family="Times,serif" font-size="14.00" fill="#000000">PostsRoutingModule</text>
</g>
<!-- PostsRoutingModule&#45;&gt;PostsModule -->
<g id="edge17" class="edge">
<title>PostsRoutingModule&#45;&gt;PostsModule</title>
<path fill="none" stroke="#000000" d="M2435.7795,-122.2228C2435.7795,-122.2228 2435.7795,-143.7269 2435.7795,-143.7269"/>
<polygon fill="#000000" stroke="#000000" points="2432.2795,-143.7269 2435.7795,-153.7269 2439.2795,-143.727 2432.2795,-143.7269"/>
</g>
<!-- ChangeColorIntervalDirective -->
<g id="node20" class="node">
<title>ChangeColorIntervalDirective</title>
<polygon fill="#ffffb3" stroke="#000000" points="2145.2682,-190 1958.7318,-190 1958.7318,-154 2145.2682,-154 2145.2682,-190"/>
<text text-anchor="middle" x="2052" y="-167.8" font-family="Times,serif" font-size="14.00" fill="#000000">ChangeColorIntervalDirective</text>
</g>
<!-- ChangeColorIntervalDirective&#45;&gt;SharedModule -->
<g id="edge20" class="edge">
<title>ChangeColorIntervalDirective&#45;&gt;SharedModule</title>
<path fill="none" stroke="#000000" d="M2052,-153.8314C2052,-132.502 2052,-100 2052,-100 2052,-100 669.2197,-100 669.2197,-100"/>
<polygon fill="#000000" stroke="#000000" points="669.2198,-96.5001 659.2197,-100 669.2197,-103.5001 669.2198,-96.5001"/>
</g>
<!-- LimitCharPipe -->
<g id="node21" class="node">
<title>LimitCharPipe</title>
<polygon fill="#ffffb3" stroke="#000000" points="1940.7148,-190 1841.2852,-190 1841.2852,-154 1940.7148,-154 1940.7148,-190"/>
<text text-anchor="middle" x="1891" y="-167.8" font-family="Times,serif" font-size="14.00" fill="#000000">LimitCharPipe</text>
</g>
<!-- LimitCharPipe&#45;&gt;SharedModule -->
<g id="edge21" class="edge">
<title>LimitCharPipe&#45;&gt;SharedModule</title>
<path fill="none" stroke="#000000" d="M1891,-153.7772C1891,-133.6348 1891,-104 1891,-104 1891,-104 669.4318,-104 669.4318,-104"/>
<polygon fill="#000000" stroke="#000000" points="669.4318,-100.5001 659.4318,-104 669.4318,-107.5001 669.4318,-100.5001"/>
</g>
<!-- ModalComponent -->
<g id="node22" class="node">
<title>ModalComponent</title>
<polygon fill="#ffffb3" stroke="#000000" points="2280.8823,-190 2163.1177,-190 2163.1177,-154 2280.8823,-154 2280.8823,-190"/>
<text text-anchor="middle" x="2222" y="-167.8" font-family="Times,serif" font-size="14.00" fill="#000000">ModalComponent</text>
</g>
<!-- ModalComponent&#45;&gt;SharedModule -->
<g id="edge22" class="edge">
<title>ModalComponent&#45;&gt;SharedModule</title>
<path fill="none" stroke="#000000" d="M2222,-153.7521C2222,-130.9821 2222,-95 2222,-95 2222,-95 669.567,-95 669.567,-95"/>
<polygon fill="#000000" stroke="#000000" points="669.567,-91.5001 659.567,-95 669.5669,-98.5001 669.567,-91.5001"/>
</g>
</g>
</svg>
