<?xml version="1.0" encoding="UTF-8" standalone="no"?>
<!DOCTYPE svg PUBLIC "-//W3C//DTD SVG 1.1//EN"
 "http://www.w3.org/Graphics/SVG/1.1/DTD/svg11.dtd">
<!-- Generated by graphviz version 2.40.1 (20161225.0304)
 -->
<!-- Title: dependencies Pages: 1 -->
<svg width="5056pt" height="374pt"
 viewBox="0.00 0.00 5056.00 374.00" xmlns="http://www.w3.org/2000/svg" xmlns:xlink="http://www.w3.org/1999/xlink">
<g id="graph0" class="graph" transform="scale(1 1) rotate(0) translate(4 370)">
<title>dependencies</title>
<polygon fill="#ffffff" stroke="transparent" points="-4,4 -4,-370 5052,-370 5052,4 -4,4"/>
<text text-anchor="start" x="2503.0091" y="-42.4" font-family="sans-serif" font-weight="bold" font-size="14.00" fill="#000000">Legend</text>
<polygon fill="#ffffb3" stroke="transparent" points="2290,-10 2290,-30 2310,-30 2310,-10 2290,-10"/>
<text text-anchor="start" x="2313.629" y="-15.4" font-family="sans-serif" font-size="14.00" fill="#000000"> &#160;Declarations</text>
<polygon fill="#8dd3c7" stroke="transparent" points="2403,-10 2403,-30 2423,-30 2423,-10 2403,-10"/>
<text text-anchor="start" x="2426.7251" y="-15.4" font-family="sans-serif" font-size="14.00" fill="#000000"> &#160;Module</text>
<polygon fill="#80b1d3" stroke="transparent" points="2489,-10 2489,-30 2509,-30 2509,-10 2489,-10"/>
<text text-anchor="start" x="2512.7812" y="-15.4" font-family="sans-serif" font-size="14.00" fill="#000000"> &#160;Bootstrap</text>
<polygon fill="#fdb462" stroke="transparent" points="2586,-10 2586,-30 2606,-30 2606,-10 2586,-10"/>
<text text-anchor="start" x="2609.6732" y="-15.4" font-family="sans-serif" font-size="14.00" fill="#000000"> &#160;Providers</text>
<polygon fill="#fb8072" stroke="transparent" points="2682,-10 2682,-30 2702,-30 2702,-10 2682,-10"/>
<text text-anchor="start" x="2705.7258" y="-15.4" font-family="sans-serif" font-size="14.00" fill="#000000"> &#160;Exports</text>
<g id="clust1" class="cluster">
<title>cluster_AppModule</title>
<polygon fill="none" stroke="#000000" stroke-dasharray="1,5" points="1863,-70 1863,-358 2478,-358 2478,-70 1863,-70"/>
</g>
<g id="clust2" class="cluster">
<title>cluster_AppModule_declarations</title>
<polygon fill="none" stroke="#000000" points="1871,-154 1871,-206 2096,-206 2096,-154 1871,-154"/>
</g>
<g id="clust5" class="cluster">
<title>cluster_AppModule_imports</title>
<polygon fill="none" stroke="#000000" points="2104,-78 2104,-206 2470,-206 2470,-78 2104,-78"/>
</g>
<g id="clust7" class="cluster">
<title>cluster_AppModule_bootstrap</title>
<polygon fill="none" stroke="#000000" points="2301,-298 2301,-350 2425,-350 2425,-298 2301,-298"/>
</g>
<g id="clust15" class="cluster">
<title>cluster_CoreModule</title>
<polygon fill="none" stroke="#000000" stroke-dasharray="1,5" points="2486,-146 2486,-214 3146,-214 3146,-146 2486,-146"/>
</g>
<g id="clust16" class="cluster">
<title>cluster_CoreModule_declarations</title>
<polygon fill="none" stroke="#000000" points="2824,-154 2824,-206 3138,-206 3138,-154 2824,-154"/>
</g>
<g id="clust20" class="cluster">
<title>cluster_CoreModule_exports</title>
<polygon fill="none" stroke="#000000" points="2494,-154 2494,-206 2816,-206 2816,-154 2494,-154"/>
</g>
<g id="clust23" class="cluster">
<title>cluster_HomeModule</title>
<polygon fill="none" stroke="#000000" stroke-dasharray="1,5" points="2486,-222 2486,-290 3679,-290 3679,-222 2486,-222"/>
</g>
<g id="clust24" class="cluster">
<title>cluster_HomeModule_declarations</title>
<polygon fill="none" stroke="#000000" points="3094,-230 3094,-282 3671,-282 3671,-230 3094,-230"/>
</g>
<g id="clust30" class="cluster">
<title>cluster_HomeModule_exports</title>
<polygon fill="none" stroke="#000000" points="2494,-230 2494,-282 3086,-282 3086,-230 2494,-230"/>
</g>
<g id="clust33" class="cluster">
<title>cluster_MainModule</title>
<polygon fill="none" stroke="#000000" stroke-dasharray="1,5" points="8,-70 8,-138 1855,-138 1855,-70 8,-70"/>
</g>
<g id="clust34" class="cluster">
<title>cluster_MainModule_declarations</title>
<polygon fill="none" stroke="#000000" points="1024,-78 1024,-130 1847,-130 1847,-78 1024,-78"/>
</g>
<g id="clust40" class="cluster">
<title>cluster_MainModule_imports</title>
<polygon fill="none" stroke="#000000" points="866,-78 866,-130 1016,-130 1016,-78 866,-78"/>
</g>
<g id="clust41" class="cluster">
<title>cluster_MainModule_exports</title>
<polygon fill="none" stroke="#000000" points="16,-78 16,-130 858,-130 858,-78 16,-78"/>
</g>
<g id="clust50" class="cluster">
<title>cluster_PostsModule</title>
<polygon fill="none" stroke="#000000" stroke-dasharray="1,5" points="4580,-70 4580,-290 5040,-290 5040,-70 4580,-70"/>
</g>
<g id="clust51" class="cluster">
<title>cluster_PostsModule_declarations</title>
<polygon fill="none" stroke="#000000" points="4746,-78 4746,-130 5032,-130 5032,-78 4746,-78"/>
</g>
<g id="clust54" class="cluster">
<title>cluster_PostsModule_imports</title>
<polygon fill="none" stroke="#000000" points="4588,-78 4588,-130 4738,-130 4738,-78 4588,-78"/>
</g>
<g id="clust55" class="cluster">
<title>cluster_PostsModule_exports</title>
<polygon fill="none" stroke="#000000" points="4671,-230 4671,-282 4801,-282 4801,-230 4671,-230"/>
</g>
<g id="clust64" class="cluster">
<title>cluster_SharedModule</title>
<polygon fill="none" stroke="#000000" stroke-dasharray="1,5" points="3154,-146 3154,-214 4572,-214 4572,-146 3154,-146"/>
</g>
<g id="clust65" class="cluster">
<title>cluster_SharedModule_declarations</title>
<polygon fill="none" stroke="#000000" points="3874,-154 3874,-206 4564,-206 4564,-154 3874,-154"/>
</g>
<g id="clust71" class="cluster">
<title>cluster_SharedModule_exports</title>
<polygon fill="none" stroke="#000000" points="3162,-154 3162,-206 3866,-206 3866,-154 3162,-154"/>
</g>
<!-- AppComponent -->
<g id="node1" class="node">
<title>AppComponent</title>
<polygon fill="#ffffb3" stroke="#000000" points="2087.9399,-198 1982.0601,-198 1982.0601,-162 2087.9399,-162 2087.9399,-198"/>
<text text-anchor="middle" x="2035" y="-175.8" font-family="Times,serif" font-size="14.00" fill="#000000">AppComponent</text>
</g>
<!-- AppModule -->
<g id="node3" class="node">
<title>AppModule</title>
<polygon fill="#8dd3c7" stroke="#000000" points="2404.6571,-274 2401.6571,-278 2380.6571,-278 2377.6571,-274 2321.3429,-274 2321.3429,-238 2404.6571,-238 2404.6571,-274"/>
<text text-anchor="middle" x="2363" y="-251.8" font-family="Times,serif" font-size="14.00" fill="#000000">AppModule</text>
</g>
<!-- AppComponent&#45;&gt;AppModule -->
<g id="edge1" class="edge">
<title>AppComponent&#45;&gt;AppModule</title>
<path fill="none" stroke="#000000" d="M2035,-198.1985C2035,-222.3563 2035,-262 2035,-262 2035,-262 2311.1254,-262 2311.1254,-262"/>
<polygon fill="#000000" stroke="#000000" points="2311.1254,-265.5001 2321.1254,-262 2311.1254,-258.5001 2311.1254,-265.5001"/>
</g>
<!-- MyPipePipe -->
<g id="node2" class="node">
<title>MyPipePipe</title>
<polygon fill="#ffffb3" stroke="#000000" points="1964.7205,-198 1879.2795,-198 1879.2795,-162 1964.7205,-162 1964.7205,-198"/>
<text text-anchor="middle" x="1922" y="-175.8" font-family="Times,serif" font-size="14.00" fill="#000000">MyPipePipe</text>
</g>
<!-- MyPipePipe&#45;&gt;AppModule -->
<g id="edge2" class="edge">
<title>MyPipePipe&#45;&gt;AppModule</title>
<path fill="none" stroke="#000000" d="M1922,-198.2337C1922,-224.0094 1922,-268 1922,-268 1922,-268 2311.1142,-268 2311.1142,-268"/>
<polygon fill="#000000" stroke="#000000" points="2311.1142,-271.5001 2321.1142,-268 2311.1142,-264.5001 2311.1142,-271.5001"/>
</g>
<!-- AppComponent  -->
<g id="node9" class="node">
<title>AppComponent </title>
<polygon fill="#80b1d3" stroke="#000000" points="2417.439,-342 2308.561,-342 2308.561,-306 2417.439,-306 2417.439,-342"/>
<text text-anchor="middle" x="2363" y="-319.8" font-family="Times,serif" font-size="14.00" fill="#000000">AppComponent </text>
</g>
<!-- AppModule&#45;&gt;AppComponent  -->
<g id="edge8" class="edge">
<title>AppModule&#45;&gt;AppComponent </title>
<path fill="none" stroke="#000000" stroke-dasharray="1,5" d="M2363,-274.2228C2363,-274.2228 2363,-295.7269 2363,-295.7269"/>
<polygon fill="#000000" stroke="#000000" points="2359.5001,-295.7269 2363,-305.7269 2366.5001,-295.727 2359.5001,-295.7269"/>
</g>
<!-- AppRoutingModule -->
<g id="node4" class="node">
<title>AppRoutingModule</title>
<polygon fill="#8dd3c7" stroke="#000000" points="2240.2744,-122 2237.2744,-126 2216.2744,-126 2213.2744,-122 2111.7256,-122 2111.7256,-86 2240.2744,-86 2240.2744,-122"/>
<text text-anchor="middle" x="2176" y="-99.8" font-family="Times,serif" font-size="14.00" fill="#000000">AppRoutingModule</text>
</g>
<!-- AppRoutingModule&#45;&gt;AppModule -->
<g id="edge3" class="edge">
<title>AppRoutingModule&#45;&gt;AppModule</title>
<path fill="none" stroke="#000000" d="M2220.9685,-122.1958C2220.9685,-161.3337 2220.9685,-250 2220.9685,-250 2220.9685,-250 2311.154,-250 2311.154,-250"/>
<polygon fill="#000000" stroke="#000000" points="2311.1541,-253.5001 2321.154,-250 2311.154,-246.5001 2311.1541,-253.5001"/>
</g>
<!-- CoreModule -->
<g id="node5" class="node">
<title>CoreModule</title>
<polygon fill="#8dd3c7" stroke="#000000" points="2345.2619,-122 2342.2619,-126 2321.2619,-126 2318.2619,-122 2258.7381,-122 2258.7381,-86 2345.2619,-86 2345.2619,-122"/>
<text text-anchor="middle" x="2302" y="-99.8" font-family="Times,serif" font-size="14.00" fill="#000000">CoreModule</text>
</g>
<!-- CoreModule&#45;&gt;AppModule -->
<g id="edge4" class="edge">
<title>CoreModule&#45;&gt;AppModule</title>
<path fill="none" stroke="#000000" d="M2312.3249,-122.0159C2312.3249,-159.8277 2312.3249,-244 2312.3249,-244 2312.3249,-244 2313.2075,-244 2313.2075,-244"/>
<polygon fill="#000000" stroke="#000000" points="2311.1518,-247.5001 2321.1518,-244 2311.1517,-240.5001 2311.1518,-247.5001"/>
</g>
<!-- HeaderComponent  -->
<g id="node12" class="node">
<title>HeaderComponent </title>
<polygon fill="#fb8072" stroke="#000000" points="2807.7436,-198 2682.2564,-198 2682.2564,-162 2807.7436,-162 2807.7436,-198"/>
<text text-anchor="middle" x="2745" y="-175.8" font-family="Times,serif" font-size="14.00" fill="#000000">HeaderComponent </text>
</g>
<!-- CoreModule&#45;&gt;HeaderComponent  -->
<g id="edge11" class="edge">
<title>CoreModule&#45;&gt;HeaderComponent </title>
<path fill="none" stroke="#000000" stroke-dasharray="5,2" d="M2339.5285,-122.1243C2339.5285,-136.7832 2339.5285,-155 2339.5285,-155 2339.5285,-155 2745,-155 2745,-155 2745,-155 2745,-155.6831 2745,-155.6831"/>
<polygon fill="#000000" stroke="#000000" points="2741.5002,-151.8313 2745,-161.8314 2748.5002,-151.8314 2741.5002,-151.8313"/>
</g>
<!-- PageNotFundComponent  -->
<g id="node13" class="node">
<title>PageNotFundComponent </title>
<polygon fill="#fb8072" stroke="#000000" points="2663.8241,-198 2502.1759,-198 2502.1759,-162 2663.8241,-162 2663.8241,-198"/>
<text text-anchor="middle" x="2583" y="-175.8" font-family="Times,serif" font-size="14.00" fill="#000000">PageNotFundComponent </text>
</g>
<!-- CoreModule&#45;&gt;PageNotFundComponent  -->
<g id="edge12" class="edge">
<title>CoreModule&#45;&gt;PageNotFundComponent </title>
<path fill="none" stroke="#000000" stroke-dasharray="5,2" d="M2333.6762,-122.2396C2333.6762,-137.5706 2333.6762,-157 2333.6762,-157 2333.6762,-157 2583,-157 2583,-157 2583,-157 2583,-157.4878 2583,-157.4878"/>
<polygon fill="#000000" stroke="#000000" points="2579.5002,-151.8776 2583,-161.8777 2586.5002,-151.8778 2579.5002,-151.8776"/>
</g>
<!-- HomeModule -->
<g id="node6" class="node">
<title>HomeModule</title>
<polygon fill="#8dd3c7" stroke="#000000" points="2409.7619,-198 2406.7619,-202 2385.7619,-202 2382.7619,-198 2316.2381,-198 2316.2381,-162 2409.7619,-162 2409.7619,-198"/>
<text text-anchor="middle" x="2363" y="-175.8" font-family="Times,serif" font-size="14.00" fill="#000000">HomeModule</text>
</g>
<!-- HomeModule&#45;&gt;AppModule -->
<g id="edge5" class="edge">
<title>HomeModule&#45;&gt;AppModule</title>
<path fill="none" stroke="#000000" d="M2330.467,-198.0109C2330.467,-198.0109 2330.467,-227.855 2330.467,-227.855"/>
<polygon fill="#000000" stroke="#000000" points="2326.9671,-227.8549 2330.467,-237.855 2333.9671,-227.855 2326.9671,-227.8549"/>
</g>
<!-- CanvasComponent  -->
<g id="node18" class="node">
<title>CanvasComponent </title>
<polygon fill="#fb8072" stroke="#000000" points="2794.0428,-274 2667.9572,-274 2667.9572,-238 2794.0428,-238 2794.0428,-274"/>
<text text-anchor="middle" x="2731" y="-251.8" font-family="Times,serif" font-size="14.00" fill="#000000">CanvasComponent </text>
</g>
<!-- HomeModule&#45;&gt;CanvasComponent  -->
<g id="edge18" class="edge">
<title>HomeModule&#45;&gt;CanvasComponent </title>
<path fill="none" stroke="#000000" stroke-dasharray="5,2" d="M2376.9427,-198.2396C2376.9427,-213.5706 2376.9427,-233 2376.9427,-233 2376.9427,-233 2675.1785,-233 2675.1785,-233 2675.1785,-233 2675.1785,-233.4878 2675.1785,-233.4878"/>
<polygon fill="#000000" stroke="#000000" points="2671.6787,-227.8776 2675.1785,-237.8777 2678.6787,-227.8778 2671.6787,-227.8776"/>
</g>
<!-- CardsgameComponent  -->
<g id="node19" class="node">
<title>CardsgameComponent </title>
<polygon fill="#fb8072" stroke="#000000" points="2649.8087,-274 2502.1913,-274 2502.1913,-238 2649.8087,-238 2649.8087,-274"/>
<text text-anchor="middle" x="2576" y="-251.8" font-family="Times,serif" font-size="14.00" fill="#000000">CardsgameComponent </text>
</g>
<!-- HomeModule&#45;&gt;CardsgameComponent  -->
<g id="edge19" class="edge">
<title>HomeModule&#45;&gt;CardsgameComponent </title>
<path fill="none" stroke="#000000" stroke-dasharray="5,2" d="M2410.0272,-180C2411.5388,-180 2412.4104,-180 2412.4104,-180 2412.4104,-180 2412.4104,-250 2412.4104,-250 2412.4104,-250 2491.8635,-250 2491.8635,-250"/>
<polygon fill="#000000" stroke="#000000" points="2491.8635,-253.5001 2501.8635,-250 2491.8634,-246.5001 2491.8635,-253.5001"/>
</g>
<!-- HomeComponent  -->
<g id="node20" class="node">
<title>HomeComponent </title>
<polygon fill="#fb8072" stroke="#000000" points="3077.5442,-274 2958.4558,-274 2958.4558,-238 3077.5442,-238 3077.5442,-274"/>
<text text-anchor="middle" x="3018" y="-251.8" font-family="Times,serif" font-size="14.00" fill="#000000">HomeComponent </text>
</g>
<!-- HomeModule&#45;&gt;HomeComponent  -->
<g id="edge20" class="edge">
<title>HomeModule&#45;&gt;HomeComponent </title>
<path fill="none" stroke="#000000" stroke-dasharray="5,2" d="M2395.533,-198.4854C2395.533,-210.1399 2395.533,-223 2395.533,-223 2395.533,-223 2974.32,-223 2974.32,-223 2974.32,-223 2974.32,-227.9551 2974.32,-227.9551"/>
<polygon fill="#000000" stroke="#000000" points="2970.82,-227.9551 2974.32,-237.9551 2977.82,-227.9552 2970.82,-227.9551"/>
</g>
<!-- RelaxerComponent  -->
<g id="node21" class="node">
<title>RelaxerComponent </title>
<polygon fill="#fb8072" stroke="#000000" points="2940.3645,-274 2811.6355,-274 2811.6355,-238 2940.3645,-238 2940.3645,-274"/>
<text text-anchor="middle" x="2876" y="-251.8" font-family="Times,serif" font-size="14.00" fill="#000000">RelaxerComponent </text>
</g>
<!-- HomeModule&#45;&gt;RelaxerComponent  -->
<g id="edge21" class="edge">
<title>HomeModule&#45;&gt;RelaxerComponent </title>
<path fill="none" stroke="#000000" stroke-dasharray="5,2" d="M2386.2379,-198.1467C2386.2379,-211.7395 2386.2379,-228 2386.2379,-228 2386.2379,-228 2821.828,-228 2821.828,-228 2821.828,-228 2821.828,-228.9793 2821.828,-228.9793"/>
<polygon fill="#000000" stroke="#000000" points="2818.3281,-227.793 2821.828,-237.793 2825.3281,-227.7931 2818.3281,-227.793"/>
</g>
<!-- MainModule -->
<g id="node7" class="node">
<title>MainModule</title>
<polygon fill="#8dd3c7" stroke="#000000" points="2201.5997,-198 2198.5997,-202 2177.5997,-202 2174.5997,-198 2112.4003,-198 2112.4003,-162 2201.5997,-162 2201.5997,-198"/>
<text text-anchor="middle" x="2157" y="-175.8" font-family="Times,serif" font-size="14.00" fill="#000000">MainModule</text>
</g>
<!-- MainModule&#45;&gt;AppModule -->
<g id="edge6" class="edge">
<title>MainModule&#45;&gt;AppModule</title>
<path fill="none" stroke="#000000" d="M2157,-198.0109C2157,-220.4852 2157,-256 2157,-256 2157,-256 2311.3128,-256 2311.3128,-256"/>
<polygon fill="#000000" stroke="#000000" points="2311.3129,-259.5001 2321.3128,-256 2311.3128,-252.5001 2311.3129,-259.5001"/>
</g>
<!-- DesignSystemComponent  -->
<g id="node28" class="node">
<title>DesignSystemComponent </title>
<polygon fill="#fb8072" stroke="#000000" points="189.7121,-122 24.2879,-122 24.2879,-86 189.7121,-86 189.7121,-122"/>
<text text-anchor="middle" x="107" y="-99.8" font-family="Times,serif" font-size="14.00" fill="#000000">DesignSystemComponent </text>
</g>
<!-- MainModule&#45;&gt;DesignSystemComponent  -->
<g id="edge29" class="edge">
<title>MainModule&#45;&gt;DesignSystemComponent </title>
<path fill="none" stroke="#000000" stroke-dasharray="5,2" d="M2119.8752,-161.793C2119.8752,-156.4451 2119.8752,-152 2119.8752,-152 2119.8752,-152 107,-152 107,-152 107,-152 107,-132.1467 107,-132.1467"/>
<polygon fill="#000000" stroke="#000000" points="110.5001,-132.1467 107,-122.1467 103.5001,-132.1468 110.5001,-132.1467"/>
</g>
<!-- RouterDemoComponent  -->
<g id="node29" class="node">
<title>RouterDemoComponent </title>
<polygon fill="#fb8072" stroke="#000000" points="849.6467,-122 692.3533,-122 692.3533,-86 849.6467,-86 849.6467,-122"/>
<text text-anchor="middle" x="771" y="-99.8" font-family="Times,serif" font-size="14.00" fill="#000000">RouterDemoComponent </text>
</g>
<!-- MainModule&#45;&gt;RouterDemoComponent  -->
<g id="edge30" class="edge">
<title>MainModule&#45;&gt;RouterDemoComponent </title>
<path fill="none" stroke="#000000" stroke-dasharray="5,2" d="M2149.575,-161.8903C2149.575,-152.103 2149.575,-142 2149.575,-142 2149.575,-142 771,-142 771,-142 771,-142 771,-132.1097 771,-132.1097"/>
<polygon fill="#000000" stroke="#000000" points="774.5001,-132.1096 771,-122.1097 767.5001,-132.1097 774.5001,-132.1096"/>
</g>
<!-- SearchInputComponent  -->
<g id="node30" class="node">
<title>SearchInputComponent </title>
<polygon fill="#fb8072" stroke="#000000" points="674.4713,-122 521.5287,-122 521.5287,-86 674.4713,-86 674.4713,-122"/>
<text text-anchor="middle" x="598" y="-99.8" font-family="Times,serif" font-size="14.00" fill="#000000">SearchInputComponent </text>
</g>
<!-- MainModule&#45;&gt;SearchInputComponent  -->
<g id="edge31" class="edge">
<title>MainModule&#45;&gt;SearchInputComponent </title>
<path fill="none" stroke="#000000" stroke-dasharray="5,2" d="M2142.1501,-161.68C2142.1501,-153.2117 2142.1501,-145 2142.1501,-145 2142.1501,-145 598,-145 598,-145 598,-145 598,-132.1025 598,-132.1025"/>
<polygon fill="#000000" stroke="#000000" points="601.5001,-132.1025 598,-122.1025 594.5001,-132.1026 601.5001,-132.1025"/>
</g>
<!-- SearchListComponent  -->
<g id="node31" class="node">
<title>SearchListComponent </title>
<polygon fill="#fb8072" stroke="#000000" points="503.1981,-122 358.8019,-122 358.8019,-86 503.1981,-86 503.1981,-122"/>
<text text-anchor="middle" x="431" y="-99.8" font-family="Times,serif" font-size="14.00" fill="#000000">SearchListComponent </text>
</g>
<!-- MainModule&#45;&gt;SearchListComponent  -->
<g id="edge32" class="edge">
<title>MainModule&#45;&gt;SearchListComponent </title>
<path fill="none" stroke="#000000" stroke-dasharray="5,2" d="M2134.7251,-161.9551C2134.7251,-154.251 2134.7251,-147 2134.7251,-147 2134.7251,-147 431,-147 431,-147 431,-147 431,-132.4854 431,-132.4854"/>
<polygon fill="#000000" stroke="#000000" points="434.5001,-132.4854 431,-122.4854 427.5001,-132.4855 434.5001,-132.4854"/>
</g>
<!-- YoutubeComponent  -->
<g id="node32" class="node">
<title>YoutubeComponent </title>
<polygon fill="#fb8072" stroke="#000000" points="340.5442,-122 207.4558,-122 207.4558,-86 340.5442,-86 340.5442,-122"/>
<text text-anchor="middle" x="274" y="-99.8" font-family="Times,serif" font-size="14.00" fill="#000000">YoutubeComponent </text>
</g>
<!-- MainModule&#45;&gt;YoutubeComponent  -->
<g id="edge33" class="edge">
<title>MainModule&#45;&gt;YoutubeComponent </title>
<path fill="none" stroke="#000000" stroke-dasharray="5,2" d="M2127.3001,-161.8568C2127.3001,-155.5389 2127.3001,-150 2127.3001,-150 2127.3001,-150 274,-150 274,-150 274,-150 274,-132.1804 274,-132.1804"/>
<polygon fill="#000000" stroke="#000000" points="277.5001,-132.1804 274,-122.1804 270.5001,-132.1805 277.5001,-132.1804"/>
</g>
<!-- SharedModule -->
<g id="node8" class="node">
<title>SharedModule</title>
<polygon fill="#8dd3c7" stroke="#000000" points="2462.4231,-122 2459.4231,-126 2438.4231,-126 2435.4231,-122 2363.5769,-122 2363.5769,-86 2462.4231,-86 2462.4231,-122"/>
<text text-anchor="middle" x="2413" y="-99.8" font-family="Times,serif" font-size="14.00" fill="#000000">SharedModule</text>
</g>
<!-- SharedModule&#45;&gt;AppModule -->
<g id="edge7" class="edge">
<title>SharedModule&#45;&gt;AppModule</title>
<path fill="none" stroke="#000000" d="M2414.9399,-122.1246C2414.9399,-163.6261 2414.9399,-262 2414.9399,-262 2414.9399,-262 2413.9138,-262 2413.9138,-262"/>
<polygon fill="#000000" stroke="#000000" points="2414.6783,-258.5001 2404.6783,-262 2414.6782,-265.5001 2414.6783,-258.5001"/>
</g>
<!-- SharedModule&#45;&gt;HomeModule -->
<g id="edge17" class="edge">
<title>SharedModule&#45;&gt;HomeModule</title>
<path fill="none" stroke="#000000" d="M2394.5168,-122.0109C2394.5168,-122.0109 2394.5168,-151.855 2394.5168,-151.855"/>
<polygon fill="#000000" stroke="#000000" points="2391.0169,-151.8549 2394.5168,-161.855 2398.0169,-151.855 2391.0169,-151.8549"/>
</g>
<!-- SharedModule&#45;&gt;MainModule -->
<g id="edge28" class="edge">
<title>SharedModule&#45;&gt;MainModule</title>
<path fill="none" stroke="#000000" d="M2379.1529,-122.027C2379.1529,-138.3976 2379.1529,-160 2379.1529,-160 2379.1529,-160 2194.1248,-160 2194.1248,-160 2194.1248,-160 2194.1248,-160.1846 2194.1248,-160.1846"/>
<polygon fill="#000000" stroke="#000000" points="2190.6254,-151.8455 2194.1248,-161.8457 2197.6254,-151.8459 2190.6254,-151.8455"/>
</g>
<!-- PostsModule -->
<g id="node35" class="node">
<title>PostsModule</title>
<polygon fill="#8dd3c7" stroke="#000000" points="4780.6123,-198 4777.6123,-202 4756.6123,-202 4753.6123,-198 4691.3877,-198 4691.3877,-162 4780.6123,-162 4780.6123,-198"/>
<text text-anchor="middle" x="4736" y="-175.8" font-family="Times,serif" font-size="14.00" fill="#000000">PostsModule</text>
</g>
<!-- SharedModule&#45;&gt;PostsModule -->
<g id="edge37" class="edge">
<title>SharedModule&#45;&gt;PostsModule</title>
<path fill="none" stroke="#000000" d="M2462.2415,-90C2784.2062,-90 4576.0095,-90 4576.0095,-90 4576.0095,-90 4576.0095,-180 4576.0095,-180 4576.0095,-180 4681.4337,-180 4681.4337,-180"/>
<polygon fill="#000000" stroke="#000000" points="4681.4338,-183.5001 4691.4337,-180 4681.4337,-176.5001 4681.4338,-183.5001"/>
</g>
<!-- ChangeColorIntervalDirective  -->
<g id="node42" class="node">
<title>ChangeColorIntervalDirective </title>
<polygon fill="#fb8072" stroke="#000000" points="3857.7681,-198 3668.2319,-198 3668.2319,-162 3857.7681,-162 3857.7681,-198"/>
<text text-anchor="middle" x="3763" y="-175.8" font-family="Times,serif" font-size="14.00" fill="#000000">ChangeColorIntervalDirective </text>
</g>
<!-- SharedModule&#45;&gt;ChangeColorIntervalDirective  -->
<g id="edge43" class="edge">
<title>SharedModule&#45;&gt;ChangeColorIntervalDirective </title>
<path fill="none" stroke="#000000" stroke-dasharray="5,2" d="M2462.2458,-108C2705.0395,-108 3763,-108 3763,-108 3763,-108 3763,-151.8314 3763,-151.8314"/>
<polygon fill="#000000" stroke="#000000" points="3759.5001,-151.8313 3763,-161.8314 3766.5001,-151.8314 3759.5001,-151.8313"/>
</g>
<!-- ChangeFontfamilyIntervalDirective  -->
<g id="node43" class="node">
<title>ChangeFontfamilyIntervalDirective </title>
<polygon fill="#fb8072" stroke="#000000" points="3650.1004,-198 3429.8996,-198 3429.8996,-162 3650.1004,-162 3650.1004,-198"/>
<text text-anchor="middle" x="3540" y="-175.8" font-family="Times,serif" font-size="14.00" fill="#000000">ChangeFontfamilyIntervalDirective </text>
</g>
<!-- SharedModule&#45;&gt;ChangeFontfamilyIntervalDirective  -->
<g id="edge44" class="edge">
<title>SharedModule&#45;&gt;ChangeFontfamilyIntervalDirective </title>
<path fill="none" stroke="#000000" stroke-dasharray="5,2" d="M2462.5146,-112C2680.0272,-112 3540,-112 3540,-112 3540,-112 3540,-151.7772 3540,-151.7772"/>
<polygon fill="#000000" stroke="#000000" points="3536.5001,-151.7772 3540,-161.7772 3543.5001,-151.7773 3536.5001,-151.7772"/>
</g>
<!-- LimitCharPipe  -->
<g id="node44" class="node">
<title>LimitCharPipe </title>
<polygon fill="#fb8072" stroke="#000000" points="3412.215,-198 3309.785,-198 3309.785,-162 3412.215,-162 3412.215,-198"/>
<text text-anchor="middle" x="3361" y="-175.8" font-family="Times,serif" font-size="14.00" fill="#000000">LimitCharPipe </text>
</g>
<!-- SharedModule&#45;&gt;LimitCharPipe  -->
<g id="edge45" class="edge">
<title>SharedModule&#45;&gt;LimitCharPipe </title>
<path fill="none" stroke="#000000" stroke-dasharray="5,2" d="M2462.3026,-115C2656.8943,-115 3361,-115 3361,-115 3361,-115 3361,-151.8939 3361,-151.8939"/>
<polygon fill="#000000" stroke="#000000" points="3357.5001,-151.8938 3361,-161.8939 3364.5001,-151.8939 3357.5001,-151.8938"/>
</g>
<!-- ModalComponent  -->
<g id="node45" class="node">
<title>ModalComponent </title>
<polygon fill="#fb8072" stroke="#000000" points="3291.8828,-198 3170.1172,-198 3170.1172,-162 3291.8828,-162 3291.8828,-198"/>
<text text-anchor="middle" x="3231" y="-175.8" font-family="Times,serif" font-size="14.00" fill="#000000">ModalComponent </text>
</g>
<!-- SharedModule&#45;&gt;ModalComponent  -->
<g id="edge46" class="edge">
<title>SharedModule&#45;&gt;ModalComponent </title>
<path fill="none" stroke="#000000" stroke-dasharray="5,2" d="M2462.3274,-119C2639.1799,-119 3231,-119 3231,-119 3231,-119 3231,-151.698 3231,-151.698"/>
<polygon fill="#000000" stroke="#000000" points="3227.5001,-151.698 3231,-161.698 3234.5001,-151.698 3227.5001,-151.698"/>
</g>
<!-- HeaderComponent -->
<g id="node10" class="node">
<title>HeaderComponent</title>
<polygon fill="#ffffb3" stroke="#000000" points="3129.7437,-198 3008.2563,-198 3008.2563,-162 3129.7437,-162 3129.7437,-198"/>
<text text-anchor="middle" x="3069" y="-175.8" font-family="Times,serif" font-size="14.00" fill="#000000">HeaderComponent</text>
</g>
<!-- HeaderComponent&#45;&gt;CoreModule -->
<g id="edge9" class="edge">
<title>HeaderComponent&#45;&gt;CoreModule</title>
<path fill="none" stroke="#000000" d="M3069,-161.9909C3069,-145.9506 3069,-125 3069,-125 3069,-125 2327.8238,-125 2327.8238,-125 2327.8238,-125 2327.8238,-124.708 2327.8238,-124.708"/>
<polygon fill="#000000" stroke="#000000" points="2331.3242,-132.0799 2327.8238,-122.08 2324.3242,-132.0802 2331.3242,-132.0799"/>
</g>
<!-- PageNotFundComponent -->
<g id="node11" class="node">
<title>PageNotFundComponent</title>
<polygon fill="#ffffb3" stroke="#000000" points="2990.3243,-198 2831.6757,-198 2831.6757,-162 2990.3243,-162 2990.3243,-198"/>
<text text-anchor="middle" x="2911" y="-175.8" font-family="Times,serif" font-size="14.00" fill="#000000">PageNotFundComponent</text>
</g>
<!-- PageNotFundComponent&#45;&gt;CoreModule -->
<g id="edge10" class="edge">
<title>PageNotFundComponent&#45;&gt;CoreModule</title>
<path fill="none" stroke="#000000" d="M2911,-161.7604C2911,-146.4294 2911,-127 2911,-127 2911,-127 2321.9715,-127 2321.9715,-127 2321.9715,-127 2321.9715,-126.5122 2321.9715,-126.5122"/>
<polygon fill="#000000" stroke="#000000" points="2325.4717,-132.1222 2321.9715,-122.1223 2318.4717,-132.1224 2325.4717,-132.1222"/>
</g>
<!-- CanvasComponent -->
<g id="node14" class="node">
<title>CanvasComponent</title>
<polygon fill="#ffffb3" stroke="#000000" points="3386.0436,-274 3263.9564,-274 3263.9564,-238 3386.0436,-238 3386.0436,-274"/>
<text text-anchor="middle" x="3325" y="-251.8" font-family="Times,serif" font-size="14.00" fill="#000000">CanvasComponent</text>
</g>
<!-- CanvasComponent&#45;&gt;HomeModule -->
<g id="edge13" class="edge">
<title>CanvasComponent&#45;&gt;HomeModule</title>
<path fill="none" stroke="#000000" d="M3277.7099,-237.5146C3277.7099,-225.8601 3277.7099,-213 3277.7099,-213 3277.7099,-213 2349.0573,-213 2349.0573,-213 2349.0573,-213 2349.0573,-208.0449 2349.0573,-208.0449"/>
<polygon fill="#000000" stroke="#000000" points="2352.5574,-208.0448 2349.0573,-198.0449 2345.5574,-208.0449 2352.5574,-208.0448"/>
</g>
<!-- CardsgameComponent -->
<g id="node15" class="node">
<title>CardsgameComponent</title>
<polygon fill="#ffffb3" stroke="#000000" points="3246.3089,-274 3101.6911,-274 3101.6911,-238 3246.3089,-238 3246.3089,-274"/>
<text text-anchor="middle" x="3174" y="-251.8" font-family="Times,serif" font-size="14.00" fill="#000000">CardsgameComponent</text>
</g>
<!-- CardsgameComponent&#45;&gt;HomeModule -->
<g id="edge14" class="edge">
<title>CardsgameComponent&#45;&gt;HomeModule</title>
<path fill="none" stroke="#000000" d="M3115.8587,-237.8903C3115.8587,-228.103 3115.8587,-218 3115.8587,-218 3115.8587,-218 2339.7621,-218 2339.7621,-218 2339.7621,-218 2339.7621,-208.1097 2339.7621,-208.1097"/>
<polygon fill="#000000" stroke="#000000" points="2343.2622,-208.1096 2339.7621,-198.1097 2336.2622,-208.1097 2343.2622,-208.1096"/>
</g>
<!-- HomeComponent -->
<g id="node16" class="node">
<title>HomeComponent</title>
<polygon fill="#ffffb3" stroke="#000000" points="3662.5451,-274 3547.4549,-274 3547.4549,-238 3662.5451,-238 3662.5451,-274"/>
<text text-anchor="middle" x="3605" y="-251.8" font-family="Times,serif" font-size="14.00" fill="#000000">HomeComponent</text>
</g>
<!-- HomeComponent&#45;&gt;HomeModule -->
<g id="edge15" class="edge">
<title>HomeComponent&#45;&gt;HomeModule</title>
<path fill="none" stroke="#000000" d="M3598.6391,-237.7604C3598.6391,-222.4294 3598.6391,-203 3598.6391,-203 3598.6391,-203 2367.6476,-203 2367.6476,-203 2367.6476,-203 2367.6476,-202.5122 2367.6476,-202.5122"/>
<polygon fill="#000000" stroke="#000000" points="2371.1478,-208.1222 2367.6476,-198.1223 2364.1478,-208.1224 2371.1478,-208.1222"/>
</g>
<!-- RelaxerComponent -->
<g id="node17" class="node">
<title>RelaxerComponent</title>
<polygon fill="#ffffb3" stroke="#000000" points="3529.3641,-274 3404.6359,-274 3404.6359,-238 3529.3641,-238 3529.3641,-274"/>
<text text-anchor="middle" x="3467" y="-251.8" font-family="Times,serif" font-size="14.00" fill="#000000">RelaxerComponent</text>
</g>
<!-- RelaxerComponent&#45;&gt;HomeModule -->
<g id="edge16" class="edge">
<title>RelaxerComponent&#45;&gt;HomeModule</title>
<path fill="none" stroke="#000000" d="M3408.4627,-237.8533C3408.4627,-224.2605 3408.4627,-208 3408.4627,-208 3408.4627,-208 2358.3524,-208 2358.3524,-208 2358.3524,-208 2358.3524,-207.0207 2358.3524,-207.0207"/>
<polygon fill="#000000" stroke="#000000" points="2361.8525,-208.2069 2358.3524,-198.207 2354.8525,-208.207 2361.8525,-208.2069"/>
</g>
<!-- DesignSystemComponent -->
<g id="node22" class="node">
<title>DesignSystemComponent</title>
<polygon fill="#ffffb3" stroke="#000000" points="1194.2119,-122 1031.7881,-122 1031.7881,-86 1194.2119,-86 1194.2119,-122"/>
<text text-anchor="middle" x="1113" y="-99.8" font-family="Times,serif" font-size="14.00" fill="#000000">DesignSystemComponent</text>
</g>
<!-- DesignSystemComponent&#45;&gt;MainModule -->
<g id="edge22" class="edge">
<title>DesignSystemComponent&#45;&gt;MainModule</title>
<path fill="none" stroke="#000000" d="M1113,-122.0449C1113,-129.749 1113,-137 1113,-137 1113,-137 2164.425,-137 2164.425,-137 2164.425,-137 2164.425,-151.5146 2164.425,-151.5146"/>
<polygon fill="#000000" stroke="#000000" points="2160.9251,-151.5145 2164.425,-161.5146 2167.9251,-151.5146 2160.9251,-151.5145"/>
</g>
<!-- RouterDemoComponent -->
<g id="node23" class="node">
<title>RouterDemoComponent</title>
<polygon fill="#ffffb3" stroke="#000000" points="1838.647,-122 1685.353,-122 1685.353,-86 1838.647,-86 1838.647,-122"/>
<text text-anchor="middle" x="1762" y="-99.8" font-family="Times,serif" font-size="14.00" fill="#000000">RouterDemoComponent</text>
</g>
<!-- RouterDemoComponent&#45;&gt;MainModule -->
<g id="edge23" class="edge">
<title>RouterDemoComponent&#45;&gt;MainModule</title>
<path fill="none" stroke="#000000" d="M1839.0442,-104C1938.703,-104 2099.6662,-104 2099.6662,-104 2099.6662,-104 2099.6662,-180 2099.6662,-180 2099.6662,-180 2102.3904,-180 2102.3904,-180"/>
<polygon fill="#000000" stroke="#000000" points="2102.3905,-183.5001 2112.3904,-180 2102.3904,-176.5001 2102.3905,-183.5001"/>
</g>
<!-- SearchInputComponent -->
<g id="node24" class="node">
<title>SearchInputComponent</title>
<polygon fill="#ffffb3" stroke="#000000" points="1667.4706,-122 1518.5294,-122 1518.5294,-86 1667.4706,-86 1667.4706,-122"/>
<text text-anchor="middle" x="1593" y="-99.8" font-family="Times,serif" font-size="14.00" fill="#000000">SearchInputComponent</text>
</g>
<!-- SearchInputComponent&#45;&gt;MainModule -->
<g id="edge24" class="edge">
<title>SearchInputComponent&#45;&gt;MainModule</title>
<path fill="none" stroke="#000000" d="M1593,-122.0579C1593,-126.4945 1593,-130 1593,-130 1593,-130 2186.6999,-130 2186.6999,-130 2186.6999,-130 2186.6999,-151.9489 2186.6999,-151.9489"/>
<polygon fill="#000000" stroke="#000000" points="2183.2,-151.9488 2186.6999,-161.9489 2190.2,-151.9489 2183.2,-151.9488"/>
</g>
<!-- SearchListComponent -->
<g id="node25" class="node">
<title>SearchListComponent</title>
<polygon fill="#ffffb3" stroke="#000000" points="1500.6979,-122 1359.3021,-122 1359.3021,-86 1500.6979,-86 1500.6979,-122"/>
<text text-anchor="middle" x="1430" y="-99.8" font-family="Times,serif" font-size="14.00" fill="#000000">SearchListComponent</text>
</g>
<!-- SearchListComponent&#45;&gt;MainModule -->
<g id="edge25" class="edge">
<title>SearchListComponent&#45;&gt;MainModule</title>
<path fill="none" stroke="#000000" d="M1430,-122.207C1430,-127.5549 1430,-132 1430,-132 1430,-132 2179.2749,-132 2179.2749,-132 2179.2749,-132 2179.2749,-151.8533 2179.2749,-151.8533"/>
<polygon fill="#000000" stroke="#000000" points="2175.775,-151.8532 2179.2749,-161.8533 2182.775,-151.8533 2175.775,-151.8532"/>
</g>
<!-- YoutubeComponent -->
<g id="node26" class="node">
<title>YoutubeComponent</title>
<polygon fill="#ffffb3" stroke="#000000" points="1341.545,-122 1212.455,-122 1212.455,-86 1341.545,-86 1341.545,-122"/>
<text text-anchor="middle" x="1277" y="-99.8" font-family="Times,serif" font-size="14.00" fill="#000000">YoutubeComponent</text>
</g>
<!-- YoutubeComponent&#45;&gt;MainModule -->
<g id="edge26" class="edge">
<title>YoutubeComponent&#45;&gt;MainModule</title>
<path fill="none" stroke="#000000" d="M1277,-122.0328C1277,-128.8526 1277,-135 1277,-135 1277,-135 2171.8499,-135 2171.8499,-135 2171.8499,-135 2171.8499,-151.9561 2171.8499,-151.9561"/>
<polygon fill="#000000" stroke="#000000" points="2168.35,-151.956 2171.8499,-161.9561 2175.35,-151.9561 2168.35,-151.956"/>
</g>
<!-- MainRoutingModule -->
<g id="node27" class="node">
<title>MainRoutingModule</title>
<polygon fill="#8dd3c7" stroke="#000000" points="1008.2176,-122 1005.2176,-126 984.2176,-126 981.2176,-122 873.7824,-122 873.7824,-86 1008.2176,-86 1008.2176,-122"/>
<text text-anchor="middle" x="941" y="-99.8" font-family="Times,serif" font-size="14.00" fill="#000000">MainRoutingModule</text>
</g>
<!-- MainRoutingModule&#45;&gt;MainModule -->
<g id="edge27" class="edge">
<title>MainRoutingModule&#45;&gt;MainModule</title>
<path fill="none" stroke="#000000" d="M941,-122.4218C941,-131.2791 941,-140 941,-140 941,-140 2157,-140 2157,-140 2157,-140 2157,-151.8726 2157,-151.8726"/>
<polygon fill="#000000" stroke="#000000" points="2153.5001,-151.8725 2157,-161.8726 2160.5001,-151.8726 2153.5001,-151.8725"/>
</g>
<!-- CommentsComponent -->
<g id="node33" class="node">
<title>CommentsComponent</title>
<polygon fill="#ffffb3" stroke="#000000" points="5024,-122 4882,-122 4882,-86 5024,-86 5024,-122"/>
<text text-anchor="middle" x="4953" y="-99.8" font-family="Times,serif" font-size="14.00" fill="#000000">CommentsComponent</text>
</g>
<!-- CommentsComponent&#45;&gt;PostsModule -->
<g id="edge34" class="edge">
<title>CommentsComponent&#45;&gt;PostsModule</title>
<path fill="none" stroke="#000000" d="M4953,-122.0109C4953,-144.4852 4953,-180 4953,-180 4953,-180 4790.6994,-180 4790.6994,-180"/>
<polygon fill="#000000" stroke="#000000" points="4790.6995,-176.5001 4780.6994,-180 4790.6994,-183.5001 4790.6995,-176.5001"/>
</g>
<!-- PostsComponent -->
<g id="node34" class="node">
<title>PostsComponent</title>
<polygon fill="#ffffb3" stroke="#000000" points="4864.3948,-122 4753.6052,-122 4753.6052,-86 4864.3948,-86 4864.3948,-122"/>
<text text-anchor="middle" x="4809" y="-99.8" font-family="Times,serif" font-size="14.00" fill="#000000">PostsComponent</text>
</g>
<!-- PostsComponent&#45;&gt;PostsModule -->
<g id="edge35" class="edge">
<title>PostsComponent&#45;&gt;PostsModule</title>
<path fill="none" stroke="#000000" d="M4767.0544,-122.0109C4767.0544,-122.0109 4767.0544,-151.855 4767.0544,-151.855"/>
<polygon fill="#000000" stroke="#000000" points="4763.5544,-151.8549 4767.0544,-161.855 4770.5544,-151.855 4763.5544,-151.8549"/>
</g>
<!-- PostsComponent  -->
<g id="node37" class="node">
<title>PostsComponent </title>
<polygon fill="#fb8072" stroke="#000000" points="4793.3955,-274 4678.6045,-274 4678.6045,-238 4793.3955,-238 4793.3955,-274"/>
<text text-anchor="middle" x="4736" y="-251.8" font-family="Times,serif" font-size="14.00" fill="#000000">PostsComponent </text>
</g>
<!-- PostsModule&#45;&gt;PostsComponent  -->
<g id="edge38" class="edge">
<title>PostsModule&#45;&gt;PostsComponent </title>
<path fill="none" stroke="#000000" stroke-dasharray="5,2" d="M4736,-198.0109C4736,-198.0109 4736,-227.855 4736,-227.855"/>
<polygon fill="#000000" stroke="#000000" points="4732.5001,-227.8549 4736,-237.855 4739.5001,-227.855 4732.5001,-227.8549"/>
</g>
<!-- PostsRoutingModule -->
<g id="node36" class="node">
<title>PostsRoutingModule</title>
<polygon fill="#8dd3c7" stroke="#000000" points="4730.2302,-122 4727.2302,-126 4706.2302,-126 4703.2302,-122 4595.7698,-122 4595.7698,-86 4730.2302,-86 4730.2302,-122"/>
<text text-anchor="middle" x="4663" y="-99.8" font-family="Times,serif" font-size="14.00" fill="#000000">PostsRoutingModule</text>
</g>
<!-- PostsRoutingModule&#45;&gt;PostsModule -->
<g id="edge36" class="edge">
<title>PostsRoutingModule&#45;&gt;PostsModule</title>
<path fill="none" stroke="#000000" d="M4710.7795,-122.0109C4710.7795,-122.0109 4710.7795,-151.855 4710.7795,-151.855"/>
<polygon fill="#000000" stroke="#000000" points="4707.2795,-151.8549 4710.7795,-161.855 4714.2795,-151.855 4707.2795,-151.8549"/>
</g>
<!-- ChangeColorIntervalDirective -->
<g id="node38" class="node">
<title>ChangeColorIntervalDirective</title>
<polygon fill="#ffffb3" stroke="#000000" points="4556.2682,-198 4369.7318,-198 4369.7318,-162 4556.2682,-162 4556.2682,-198"/>
<text text-anchor="middle" x="4463" y="-175.8" font-family="Times,serif" font-size="14.00" fill="#000000">ChangeColorIntervalDirective</text>
</g>
<!-- ChangeColorIntervalDirective&#45;&gt;SharedModule -->
<g id="edge39" class="edge">
<title>ChangeColorIntervalDirective&#45;&gt;SharedModule</title>
<path fill="none" stroke="#000000" d="M4463,-161.7616C4463,-136.5171 4463,-94 4463,-94 4463,-94 2472.4062,-94 2472.4062,-94"/>
<polygon fill="#000000" stroke="#000000" points="2472.4063,-90.5001 2462.4062,-94 2472.4062,-97.5001 2472.4063,-90.5001"/>
</g>
<!-- ChangeFontfamilyIntervalDirective -->
<g id="node39" class="node">
<title>ChangeFontfamilyIntervalDirective</title>
<polygon fill="#ffffb3" stroke="#000000" points="4352.1008,-198 4135.8992,-198 4135.8992,-162 4352.1008,-162 4352.1008,-198"/>
<text text-anchor="middle" x="4244" y="-175.8" font-family="Times,serif" font-size="14.00" fill="#000000">ChangeFontfamilyIntervalDirective</text>
</g>
<!-- ChangeFontfamilyIntervalDirective&#45;&gt;SharedModule -->
<g id="edge40" class="edge">
<title>ChangeFontfamilyIntervalDirective&#45;&gt;SharedModule</title>
<path fill="none" stroke="#000000" d="M4244,-161.9902C4244,-137.5793 4244,-97 4244,-97 4244,-97 2472.4486,-97 2472.4486,-97"/>
<polygon fill="#000000" stroke="#000000" points="2472.4486,-93.5001 2462.4486,-97 2472.4485,-100.5001 2472.4486,-93.5001"/>
</g>
<!-- LimitCharPipe -->
<g id="node40" class="node">
<title>LimitCharPipe</title>
<polygon fill="#ffffb3" stroke="#000000" points="4117.7148,-198 4018.2852,-198 4018.2852,-162 4117.7148,-162 4117.7148,-198"/>
<text text-anchor="middle" x="4068" y="-175.8" font-family="Times,serif" font-size="14.00" fill="#000000">LimitCharPipe</text>
</g>
<!-- LimitCharPipe&#45;&gt;SharedModule -->
<g id="edge41" class="edge">
<title>LimitCharPipe&#45;&gt;SharedModule</title>
<path fill="none" stroke="#000000" d="M4068,-161.6772C4068,-138.3398 4068,-101 4068,-101 4068,-101 2472.5309,-101 2472.5309,-101"/>
<polygon fill="#000000" stroke="#000000" points="2472.5309,-97.5001 2462.5309,-101 2472.5308,-104.5001 2472.5309,-97.5001"/>
</g>
<!-- ModalComponent -->
<g id="node41" class="node">
<title>ModalComponent</title>
<polygon fill="#ffffb3" stroke="#000000" points="3999.8823,-198 3882.1177,-198 3882.1177,-162 3999.8823,-162 3999.8823,-198"/>
<text text-anchor="middle" x="3941" y="-175.8" font-family="Times,serif" font-size="14.00" fill="#000000">ModalComponent</text>
</g>
<!-- ModalComponent&#45;&gt;SharedModule -->
<g id="edge42" class="edge">
<title>ModalComponent&#45;&gt;SharedModule</title>
<path fill="none" stroke="#000000" d="M3941,-161.9891C3941,-139.5148 3941,-104 3941,-104 3941,-104 2472.5388,-104 2472.5388,-104"/>
<polygon fill="#000000" stroke="#000000" points="2472.5388,-100.5001 2462.5388,-104 2472.5387,-107.5001 2472.5388,-100.5001"/>
</g>
</g>
</svg>
